<svg width="64" height="64" viewBox="0 0 64 64" fill="none" xmlns="http://www.w3.org/2000/svg">
<g clip-path="url(#clip0_662_11815)">
<path d="M46.8836 17.7412C46.6512 17.5087 46.3287 17.375 46 17.375C45.6712 17.375 45.3487 17.5087 45.1162 17.7412C44.8837 17.9737 44.75 18.295 44.75 18.625C44.75 18.9537 44.8836 19.2762 45.1162 19.5087C45.3489 19.7412 45.6712 19.875 46 19.875C46.3287 19.875 46.6512 19.7412 46.8836 19.5087C47.1161 19.2762 47.25 18.9537 47.25 18.625C47.25 18.2962 47.1162 17.9737 46.8836 17.7412Z" fill="black"/>
<path d="M18.75 35.25H8.75C8.05975 35.25 7.5 35.8096 7.5 36.5V46.5C7.5 47.1904 8.05975 47.75 8.75 47.75H18.75C19.4402 47.75 20 47.1904 20 46.5V36.5C20 35.8096 19.4404 35.25 18.75 35.25ZM17.5 45.25H10V37.75H17.5V45.25Z" fill="black"/>
<path d="M63.2283 26.2202C62.7612 26.0266 62.2234 26.1338 61.866 26.4911L49.1288 39.2283C49.1287 39.2286 49.1284 39.2287 49.1282 39.2289C49.1279 39.2292 49.1278 39.2293 49.1277 39.2296L34.2797 54.0775C34.2795 54.0778 34.2793 54.0779 34.2791 54.0782C34.2788 54.0784 34.2787 54.0785 34.2785 54.0788L26.4911 61.8662C26.1337 62.2237 26.0267 62.7614 26.2201 63.2284C26.4136 63.6955 26.8694 64 27.375 64H62.7499C63.4402 64 63.9999 63.4404 63.9999 62.75V27.3751C63.9999 26.8696 63.6954 26.4137 63.2283 26.2202ZM61.4999 61.5H30.3928L35.163 56.7299L36.3562 57.9232C36.6003 58.1673 36.9202 58.2893 37.2401 58.2893C37.56 58.2893 37.8798 58.1673 38.124 57.9232C38.6121 57.435 38.6121 56.6435 38.124 56.1553L36.9307 54.962L40.1127 51.78L41.3058 52.9732C41.55 53.2173 41.8698 53.3393 42.1897 53.3393C42.5096 53.3393 42.8294 53.2172 43.0736 52.9732C43.5617 52.4851 43.5617 51.6936 43.0736 51.2054L41.8803 50.0122L45.0623 46.8302L46.2556 48.0234C46.4997 48.2676 46.8196 48.3896 47.1394 48.3896C47.4593 48.3896 47.7792 48.2676 48.0233 48.0234C48.5114 47.5353 48.5114 46.7438 48.0233 46.2556L46.8301 45.0623L50.0119 41.8804L51.2052 43.0737C51.4493 43.3178 51.7692 43.4398 52.0891 43.4398C52.4089 43.4398 52.7288 43.3178 52.9729 43.0737C53.4611 42.5856 53.4611 41.7941 52.9729 41.3058L51.7797 40.1126L54.9617 36.9306L56.1548 38.1237C56.3989 38.3678 56.7188 38.4898 57.0387 38.4898C57.3585 38.4898 57.6784 38.3677 57.9225 38.1237C58.4107 37.6356 58.4107 36.8441 57.9225 36.356L56.7293 35.1627L61.4999 30.3928V61.5Z" fill="black"/>
<path d="M56.9784 41.3091C56.5112 41.1155 55.9735 41.2226 55.6161 41.58L41.58 55.6162C41.2227 55.9737 41.1155 56.5113 41.309 56.9785C41.5025 57.4456 41.9583 57.7501 42.4639 57.7501H56.5C57.1902 57.7501 57.75 57.1905 57.75 56.5001V42.464C57.75 41.9585 57.4455 41.5026 56.9784 41.3091ZM55.25 55.2501H45.4818L55.25 45.4817V55.2501Z" fill="black"/>
<path d="M57.8824 18.6578C57.5382 18.3138 57.026 18.2006 56.5686 18.3679L48.0335 21.4935C47.8629 21.556 47.708 21.6549 47.5794 21.7834L45.1795 24.1833L29.5088 8.51245C29.2743 8.27807 28.9564 8.14632 28.6249 8.14632C28.2934 8.14632 27.9754 8.27807 27.7411 8.51245L8.87821 27.3753H4.26785L28.6249 3.01808L41.991 16.3842C42.4793 16.8723 43.2705 16.8723 43.7589 16.3842C44.247 15.8961 44.247 15.1046 43.7589 14.6163L29.5089 0.366337C29.0207 -0.121787 28.2294 -0.121787 27.7411 0.366337L0.366106 27.7413C0.00873144 28.0988 -0.0982684 28.6364 0.0951063 29.1035C0.288606 29.5708 0.744355 29.8753 1.24998 29.8753H2.49998V62.7502C2.49998 63.4406 3.05973 64.0002 3.74997 64.0002H23.6232C24.3134 64.0002 24.8732 63.4406 24.8732 62.7502C24.8732 62.0598 24.3134 61.5002 23.6232 61.5002H4.99997V29.8753H9.39596C9.72746 29.8753 10.0453 29.7435 10.2798 29.5092L28.6249 11.1641L43.4116 25.9509L24.8749 44.4878V33.2503H33.6249C34.3152 33.2503 34.8749 32.6907 34.8749 32.0003C34.8749 31.3099 34.3152 30.7503 33.6249 30.7503H23.6249C22.9347 30.7503 22.3749 31.3099 22.3749 32.0003V46.5003C22.3749 46.6461 22.4012 46.7854 22.4471 46.9155L21.3272 48.0354C19.3484 50.0141 19.3484 53.2339 21.3272 55.2126C22.3167 56.2021 23.6161 56.6969 24.9158 56.6967C26.2153 56.6967 27.5152 56.202 28.5044 55.2127L39.0459 44.6713C39.534 44.1831 39.534 43.3916 39.0459 42.9035C38.5578 42.4154 37.7665 42.4154 37.278 42.9035L29.2915 50.89L25.6499 47.2484L48.4883 24.41L52.1299 28.0517L43.403 36.7786C42.9149 37.2668 42.9149 38.0583 43.403 38.5464C43.8913 39.0345 44.6825 39.0345 45.1709 38.5464L54.7566 28.9607C54.885 28.8322 54.984 28.6772 55.0464 28.5067L58.1721 19.9715C58.3395 19.5146 58.2265 19.0019 57.8824 18.6578ZM27.5239 52.6576L26.7367 53.4449C26.2503 53.9312 25.6038 54.1991 24.9159 54.1991C24.2281 54.1991 23.5814 53.9312 23.0952 53.4449C22.6087 52.9585 22.3409 52.3119 22.3409 51.6241C22.3409 50.9364 22.6086 50.2896 23.0951 49.8032L23.8823 49.016L27.5239 52.6576ZM53.3856 25.7715L50.7684 23.1543L54.8981 21.6419L53.3856 25.7715Z" fill="black"/>
<path d="M42.0858 39.8626C41.8534 39.6301 41.5309 39.4963 41.2021 39.4963C40.8734 39.4963 40.5509 39.6301 40.3184 39.8626C40.0859 40.0963 39.9521 40.4176 39.9521 40.7463C39.9521 41.0763 40.0858 41.3976 40.3184 41.6313C40.5509 41.8638 40.8721 41.9963 41.2021 41.9963C41.5309 41.9963 41.8534 41.8638 42.0858 41.6313C42.3183 41.3976 42.4521 41.0751 42.4521 40.7463C42.4521 40.4176 42.3184 40.0963 42.0858 39.8626Z" fill="black"/>
<path d="M28.625 18.875C26.0059 18.875 23.875 21.0059 23.875 23.625C23.875 26.2441 26.0059 28.375 28.625 28.375C31.2441 28.375 33.375 26.2441 33.375 23.625C33.375 21.0059 31.2441 18.875 28.625 18.875ZM28.625 25.875C27.3844 25.875 26.375 24.8657 26.375 23.625C26.375 22.3844 27.3844 21.375 28.625 21.375C29.8656 21.375 30.875 22.3844 30.875 23.625C30.875 24.8656 29.8656 25.875 28.625 25.875Z" fill="black"/>
</g>
<defs>
<clipPath id="clip0_662_11815">
<rect width="64" height="64" fill="white"/>
</clipPath>
</defs>
</svg>
