<svg width="64" height="64" viewBox="0 0 64 64" fill="none" xmlns="http://www.w3.org/2000/svg">
<path d="M56.252 25.9046L52.7932 22.0791C53.4654 20.9432 53.7054 19.6192 53.4663 18.3079C53.2034 16.866 52.3947 15.6127 51.1892 14.7789L46.1988 11.3274C46.2302 10.5217 46.0821 9.7125 45.7543 8.94988C45.1754 7.60334 44.1069 6.5628 42.7452 6.01984L31.7091 1.61959C30.3715 1.08628 28.914 1.10069 27.6053 1.63788C26.6096 0.62766 25.2266 0 23.6994 0H11.8185C8.7927 0 6.33105 2.46164 6.33105 5.48742V52.5722C6.33105 58.8736 11.4576 64 17.7589 64C20.6265 64 23.2506 62.938 25.2591 61.1871C25.2879 61.1666 25.3161 61.1448 25.343 61.1206L46.7384 41.8659C47.1241 41.5186 47.1554 40.9244 46.8083 40.5386C46.4609 40.1527 45.8663 40.1215 45.481 40.4687L44.5996 41.262L41.7357 38.0946L46.232 31.5934L50.3196 36.1142L48.4598 37.788C48.0741 38.1352 48.0428 38.7295 48.3899 39.1153C48.5755 39.3215 48.8316 39.4264 49.0887 39.4264C49.3128 39.4264 49.5376 39.3468 49.7173 39.1852L55.8619 33.6552C56.9492 32.6721 57.5884 31.3245 57.6621 29.8606C57.7357 28.3968 57.235 26.9917 56.252 25.9046ZM51.6172 18.645C51.79 19.5929 51.5832 20.5516 51.035 21.3442L48.4831 25.0341L42.6734 21.0163L45.7492 13.302L50.12 16.3249C50.9127 16.873 51.4444 17.6969 51.6172 18.645ZM42.6844 33.4186L38.7997 30.7319L41.9592 22.8076L47.4139 26.58L42.6844 33.4186ZM36.8858 41.8031L34.9258 40.4477L38.0855 32.5233L41.6152 34.9645L36.8858 41.8031ZM38.3323 26.8292L35.6086 25.7432C35.1267 25.5511 34.58 25.7859 34.3877 26.2681C34.1954 26.7503 34.4305 27.2969 34.9126 27.4892L37.6361 28.5751L34.4077 36.6722L29.1868 34.5905V25.2063L31.1759 25.9993C31.2901 26.0448 31.4079 26.0664 31.5237 26.0664C31.8969 26.0664 32.2502 25.8423 32.3969 25.4744C32.5891 24.9922 32.3542 24.4457 31.8721 24.2533L29.1868 23.1827V13.7985L41.5607 18.7322L38.3323 26.8292ZM27.3072 20.9638H16.6617C16.1427 20.9638 15.7219 21.3845 15.7219 21.9036C15.7219 22.4226 16.1427 22.8434 16.6617 22.8434H27.3072V31.5603H8.21065V22.8434H12.6565C13.1755 22.8434 13.5963 22.4226 13.5963 21.9036C13.5963 21.3845 13.1755 20.9638 12.6565 20.9638H8.21065V12.2468H27.3071V20.9638H27.3072ZM8.21065 33.4399H27.3071V42.1568H8.21065V33.4399ZM29.1868 36.6139L33.7116 38.4181L29.1868 49.7666V36.6139ZM35.043 47.7721L36.0852 48.9246L31.2141 53.3082L35.043 47.7721ZM30.9817 50.3401L34.2117 42.2389L35.8168 43.3489L30.9817 50.3401ZM31.013 3.3656L42.0491 7.76586C42.9443 8.12274 43.6468 8.80691 44.0274 9.6922C44.2891 10.3008 44.377 10.9545 44.2904 11.5945C44.2889 11.6019 44.2881 11.6094 44.2867 11.6168C44.2466 11.9001 44.1727 12.1807 44.0639 12.4532L42.2566 16.9862L29.1868 11.7749V5.48742C29.1868 4.68821 29.0136 3.92898 28.7051 3.24343C29.4592 3.03028 30.2648 3.06725 31.013 3.3656ZM11.8185 1.8796H23.6994C25.6886 1.8796 27.3072 3.49805 27.3072 5.48742V10.3674H8.21065V5.48742C8.21065 3.49805 9.82911 1.8796 11.8185 1.8796ZM8.21065 52.5722V44.0364H27.3071V52.5722C27.3071 57.8372 23.0237 62.1204 17.7589 62.1204C12.494 62.1204 8.21065 57.837 8.21065 52.5722ZM43.2025 42.5195L37.4823 47.6672L36.1412 46.1839L40.6374 39.6827L43.2025 42.5195ZM55.7849 29.7662C55.7365 30.7286 55.3162 31.6146 54.6028 32.2595L51.7168 34.8569L47.3302 30.0054L51.7054 23.679L54.8576 27.1652C55.504 27.88 55.8333 28.8037 55.7849 29.7662Z" fill="black"/>
<path d="M17.5458 48.0999C15.0608 48.0999 13.0391 50.1215 13.0391 52.6066C13.0391 55.0917 15.0608 57.1134 17.5458 57.1134C20.0309 57.1134 22.0526 55.0917 22.0526 52.6066C22.0526 50.1215 20.0309 48.0999 17.5458 48.0999ZM17.5458 55.2339C16.0972 55.2339 14.9187 54.0554 14.9187 52.6068C14.9187 51.1581 16.0972 49.9796 17.5458 49.9796C18.9945 49.9796 20.173 51.1581 20.173 52.6068C20.173 54.0554 18.9945 55.2339 17.5458 55.2339Z" fill="black"/>
</svg>
