<svg width="64" height="64" viewBox="0 0 64 64" fill="none" xmlns="http://www.w3.org/2000/svg">
<g clip-path="url(#clip0_662_11749)">
<path d="M59.7333 16H20.2667C17.9103 16 16 17.9103 16 20.2667V59.7333C16 62.0898 17.9103 64 20.2667 64H59.7333C62.0898 64 64 62.0898 64 59.7333V20.2667C64 17.9103 62.0898 16 59.7333 16ZM61.8667 20.2667V59.7333C61.864 59.9177 61.8375 60.1009 61.7877 60.2784L41.5083 40L61.7877 19.7216C61.8375 19.8991 61.864 20.0823 61.8667 20.2667ZM59.7333 18.1333C59.9178 18.1358 60.101 18.1627 60.2784 18.2133L40 38.4917L19.7216 18.2133C19.899 18.1627 20.0822 18.1358 20.2667 18.1333H59.7333ZM18.2123 60.2784C18.1625 60.1009 18.136 59.9177 18.1333 59.7333V20.2667C18.136 20.0823 18.1625 19.8991 18.2123 19.7216L38.4917 40L18.2123 60.2784ZM20.2667 61.8667C20.0822 61.8642 19.899 61.8373 19.7216 61.7867L40 41.5083L60.2784 61.7867C60.101 61.8373 59.9178 61.8642 59.7333 61.8667H20.2667Z" fill="black"/>
<path d="M1.06667 18.1333H11.7333C12.3224 18.1333 12.8 17.6558 12.8 17.0667C12.8 16.4776 12.3224 16 11.7333 16H1.06667C0.477563 16 0 16.4776 0 17.0667C0 17.6558 0.477563 18.1333 1.06667 18.1333Z" fill="black"/>
<path d="M1.06667 64H11.7333C12.3224 64 12.8 63.5225 12.8 62.9334C12.8 62.3443 12.3224 61.8667 11.7333 61.8667H1.06667C0.477563 61.8667 0 62.3443 0 62.9334C0 63.5225 0.477563 64 1.06667 64Z" fill="black"/>
<path d="M10.9126 28.416C11.2897 28.8691 11.9625 28.9307 12.4156 28.5536C12.8686 28.1766 12.9302 27.5037 12.5532 27.0507L7.21983 20.6507C7.0103 20.4186 6.71225 20.2861 6.39956 20.2861C6.08688 20.2861 5.78883 20.4186 5.5793 20.6507L0.245963 27.0507C-0.131063 27.5037 -0.0694578 28.1766 0.383563 28.5536C0.836584 28.9307 1.50947 28.8691 1.8865 28.416L5.3329 24.2795V55.7206L1.8865 51.584C1.50947 51.131 0.836584 51.0694 0.383563 51.4464C-0.0694578 51.8235 -0.131063 52.4963 0.245963 52.9494L5.5793 59.3494C5.78195 59.5932 6.08254 59.7342 6.39956 59.7342C6.71658 59.7342 7.01718 59.5932 7.21983 59.3494L12.5532 52.9494C12.7971 52.6563 12.8661 52.2554 12.7342 51.8977C12.6024 51.5399 12.2897 51.2797 11.914 51.215C11.5382 51.1503 11.1565 51.291 10.9126 51.584L7.46623 55.7206V24.2795L10.9126 28.416Z" fill="black"/>
<path d="M62.9329 0C62.3438 0 61.8662 0.477563 61.8662 1.06667V11.7333C61.8662 12.3224 62.3438 12.8 62.9329 12.8C63.522 12.8 63.9995 12.3224 63.9995 11.7333V1.06667C63.9995 0.477563 63.522 0 62.9329 0Z" fill="black"/>
<path d="M17.0667 0C16.4776 0 16 0.477563 16 1.06667V11.7333C16 12.3224 16.4776 12.8 17.0667 12.8C17.6558 12.8 18.1333 12.3224 18.1333 11.7333V1.06667C18.1333 0.477563 17.6558 0 17.0667 0Z" fill="black"/>
<path d="M28.5531 0.384132C28.372 0.166306 28.1116 0.0294967 27.8295 0.00388296C27.5473 -0.0217308 27.2666 0.0659552 27.0491 0.247599L20.6491 5.58093C20.4061 5.78359 20.2656 6.0837 20.2656 6.40013C20.2656 6.71657 20.4061 7.01667 20.6491 7.21933L27.0491 12.5527C27.3418 12.7969 27.7426 12.8665 28.1005 12.7352C28.4583 12.6039 28.719 12.2916 28.7842 11.916C28.8494 11.5404 28.7093 11.1585 28.4166 10.9143L24.279 7.4668H55.7201L51.5825 10.9143C51.2898 11.1585 51.1497 11.5404 51.2149 11.916C51.2801 12.2916 51.5407 12.6039 51.8986 12.7352C52.2565 12.8665 52.6573 12.7969 52.9499 12.5527L59.3499 7.21933C59.593 7.01667 59.7335 6.71657 59.7335 6.40013C59.7335 6.0837 59.593 5.78359 59.3499 5.58093L52.9499 0.247599C52.6573 0.00332437 52.2565 -0.0662559 51.8986 0.0650683C51.5407 0.196392 51.2801 0.50867 51.2149 0.884268C51.1497 1.25987 51.2898 1.64172 51.5825 1.886L55.7201 5.33347H24.279L28.4166 1.886C28.8689 1.50889 28.93 0.836618 28.5531 0.384132Z" fill="black"/>
</g>
<defs>
<clipPath id="clip0_662_11749">
<rect width="64" height="64" fill="white"/>
</clipPath>
</defs>
</svg>
