<svg width="67" height="67" viewBox="0 0 67 67" fill="none" xmlns="http://www.w3.org/2000/svg">
<path d="M64.37 2.22685C64.0389 2.04181 63.6338 2.05011 63.3106 2.24922L59.6719 4.48887V3.14069C59.6719 2.56256 59.2031 2.09382 58.625 2.09382H43.9688C43.6911 2.09382 43.4249 2.2041 43.2284 2.40039L36.9472 8.68164C36.7509 8.87806 36.6406 9.14425 36.6406 9.42195V10.4688H17.0463L3.68924 2.24909C3.36618 2.05024 2.96082 2.04181 2.62997 2.22685C2.29886 2.41177 2.09375 2.76141 2.09375 3.14069V49.2032C2.09375 49.7813 2.56249 50.2501 3.14062 50.2501H23.0312V55.4844C23.0312 55.7621 23.1415 56.0283 23.3378 56.2247L31.7128 64.5997C31.9092 64.796 32.1754 64.9063 32.4531 64.9063H47.1094C47.6875 64.9063 48.1562 64.4376 48.1562 63.8594V55.4844C48.1562 54.9063 47.6875 54.4376 47.1094 54.4376H43.3555L39.1681 50.2501H63.8594C64.4375 50.2501 64.9062 49.7813 64.9062 49.2032V3.14069C64.9062 2.76141 64.7011 2.41177 64.37 2.22685ZM62.8125 5.01439V43.9688H51.2969V16.1369L53.8242 13.6094H58.625C59.2031 13.6094 59.6719 13.1407 59.6719 12.5626V6.94737L62.8125 5.01439ZM38.7344 9.85554L44.4024 4.18757H57.5781V11.5157H53.3906C53.1129 11.5157 52.8467 11.626 52.6503 11.8223L48.1562 16.3165L46.4961 14.6563L48.8966 12.256C49.3054 11.8471 49.3054 11.1843 48.8966 10.7754L45.7559 7.63477C45.347 7.22609 44.6843 7.22609 44.2753 7.63477L41.1347 10.7754C40.9384 10.9718 40.8281 11.238 40.8281 11.5157V14.6563H38.7344V9.85554ZM40.8281 35.5938H36.6406V31.4063H40.8281V35.5938ZM30.3594 35.5938H28.2656V31.4063H30.3594V35.5938ZM28.2656 29.3126H21.9844V27.2188H28.2656V29.3126ZM24.0781 31.4063H26.1719V39.7813H24.0781V31.4063ZM42.9219 12.5626H45.6288L44.2753 13.916C44.0709 14.1205 43.9687 14.3884 43.9687 14.6563H42.9219V12.5626ZM44.4024 10.4688L45.0156 9.85554L45.6289 10.4688H44.4024ZM30.3594 29.3126V27.2188H45.0156V29.3126H30.3594ZM45.0156 25.1251H42.9219V19.8907V16.7501H45.0156V25.1251ZM40.8281 18.8438H36.6406V16.7501H37.6875H40.8281V18.8438ZM40.8281 20.9376V25.1251H36.6406V20.9376H40.8281ZM34.5469 25.1251H32.4531V16.7501H34.5469V25.1251ZM32.4531 31.4063H34.5469V39.7813H32.4531V31.4063ZM42.9219 31.4063H45.0156V39.7813H42.9219V31.4063ZM36.6406 14.6563H31.4062C30.8281 14.6563 30.3594 15.1251 30.3594 15.7032V25.1251H20.9375C20.3594 25.1251 19.8906 25.5938 19.8906 26.1719V30.3594C19.8906 30.9376 20.3594 31.4063 20.9375 31.4063H21.9844V40.8282C21.9844 41.4063 22.4531 41.8751 23.0312 41.8751H27.2188C27.7969 41.8751 28.2656 41.4063 28.2656 40.8282V37.6876H30.3594V40.8282C30.3594 41.4063 30.8281 41.8751 31.4062 41.8751H35.5938C36.1719 41.8751 36.6406 41.4063 36.6406 40.8282V37.6876H40.8281V40.8282C40.8281 41.4063 41.2969 41.8751 41.875 41.8751H46.0625C46.6406 41.8751 47.1094 41.4063 47.1094 40.8282V18.2307L47.4159 18.5372C47.6204 18.7416 47.8883 18.8438 48.1562 18.8438C48.4242 18.8438 48.6921 18.7416 48.8966 18.5372L49.2031 18.2307V43.9688H17.7969V12.5626H36.6406V14.6563ZM4.1875 5.01413L15.7031 12.1007V43.9688H4.1875V5.01413ZM42.9219 56.5313H46.0625V62.8126H32.8867L25.125 55.0508V50.2501H27.2188V53.3907C27.2188 53.6684 27.329 53.9346 27.5253 54.131L32.7597 59.3654C33.1686 59.774 33.8314 59.774 34.2403 59.3654L37.3809 56.2247C37.7897 55.8158 37.7897 55.1531 37.3809 54.7441L34.9805 52.3438L36.6406 50.6837L42.1816 56.2247C42.378 56.421 42.6442 56.5313 42.9219 56.5313ZM32.7597 53.0841L35.1601 55.4844L33.5 57.1446L29.3125 52.9571V50.2501H34.1131L32.7597 51.6035C32.3509 52.0125 32.3509 52.6752 32.7597 53.0841ZM62.8125 48.1563H4.1875V46.0626H62.8125V48.1563Z" fill="black"/>
</svg>
