<svg width="62" height="62" viewBox="0 0 62 62" fill="none" xmlns="http://www.w3.org/2000/svg">
<path d="M59.0938 5.81248H55.1219C54.9374 4.89541 54.4905 4.05169 53.8355 3.38391C53.1804 2.71613 52.3455 2.25305 51.4321 2.05098C50.5188 1.84892 49.5664 1.91657 48.6908 2.24572C47.8152 2.57487 47.0541 3.15133 46.5 3.90501C46.0545 3.29526 45.4713 2.79926 44.798 2.45732C44.1247 2.11539 43.3802 1.93718 42.625 1.93718C41.8698 1.93718 41.1253 2.11539 40.452 2.45732C39.7787 2.79926 39.1955 3.29526 38.75 3.90501C38.3045 3.29526 37.7213 2.79926 37.048 2.45732C36.3747 2.11539 35.6302 1.93718 34.875 1.93718C34.1198 1.93718 33.3753 2.11539 32.702 2.45732C32.0287 2.79926 31.4455 3.29526 31 3.90501C30.5545 3.29526 29.9713 2.79926 29.298 2.45732C28.6247 2.11539 27.8802 1.93718 27.125 1.93718C26.3698 1.93718 25.6253 2.11539 24.952 2.45732C24.2787 2.79926 23.6955 3.29526 23.25 3.90501C22.8045 3.29526 22.2213 2.79926 21.548 2.45732C20.8747 2.11539 20.1302 1.93718 19.375 1.93718C18.6198 1.93718 17.8753 2.11539 17.202 2.45732C16.5287 2.79926 15.9455 3.29526 15.5 3.90501C14.9459 3.15133 14.1848 2.57487 13.3092 2.24572C12.4336 1.91657 11.4812 1.84892 10.5679 2.05098C9.65454 2.25305 8.81958 2.71613 8.16453 3.38391C7.50949 4.05169 7.06257 4.89541 6.87812 5.81248H2.90625C2.64932 5.81248 2.40292 5.91454 2.22124 6.09622C2.03956 6.27789 1.9375 6.5243 1.9375 6.78123V23.25C1.9375 23.5069 2.03956 23.7533 2.22124 23.935C2.40292 24.1167 2.64932 24.2187 2.90625 24.2187C3.16318 24.2187 3.40958 24.1167 3.59126 23.935C3.77294 23.7533 3.875 23.5069 3.875 23.25V7.74998H14.353C14.1534 8.31467 13.7841 8.80389 13.2958 9.1507C12.8075 9.49752 12.2239 9.68499 11.625 9.68748C11.3681 9.68748 11.1217 9.78954 10.94 9.97122C10.7583 10.1529 10.6562 10.3993 10.6562 10.6562C10.6562 10.9132 10.7583 11.1596 10.94 11.3412C11.1217 11.5229 11.3681 11.625 11.625 11.625C12.7412 11.6236 13.8228 11.2374 14.6875 10.5315C15.5521 9.82567 16.147 8.8433 16.3719 7.74998H22.104C21.9043 8.31482 21.5349 8.80415 21.0464 9.15098C20.5579 9.49781 19.9741 9.68519 19.375 9.68748C19.1181 9.68748 18.8717 9.78954 18.69 9.97122C18.5083 10.1529 18.4062 10.3993 18.4062 10.6562C18.4062 10.9132 18.5083 11.1596 18.69 11.3412C18.8717 11.5229 19.1181 11.625 19.375 11.625C20.4912 11.6236 21.5728 11.2374 22.4375 10.5315C23.3021 9.82567 23.897 8.8433 24.1219 7.74998H29.854C29.6543 8.31482 29.2849 8.80415 28.7964 9.15098C28.3079 9.49781 27.7241 9.68519 27.125 9.68748C26.8681 9.68748 26.6217 9.78954 26.44 9.97122C26.2583 10.1529 26.1562 10.3993 26.1562 10.6562C26.1562 10.9132 26.2583 11.1596 26.44 11.3412C26.6217 11.5229 26.8681 11.625 27.125 11.625C28.2412 11.6236 29.3228 11.2374 30.1875 10.5315C31.0521 9.82567 31.647 8.8433 31.8719 7.74998H37.604C37.4043 8.31482 37.0349 8.80415 36.5464 9.15098C36.0579 9.49781 35.4741 9.68519 34.875 9.68748C34.6181 9.68748 34.3717 9.78954 34.19 9.97122C34.0083 10.1529 33.9062 10.3993 33.9062 10.6562C33.9062 10.9132 34.0083 11.1596 34.19 11.3412C34.3717 11.5229 34.6181 11.625 34.875 11.625C35.9912 11.6236 37.0728 11.2374 37.9375 10.5315C38.8021 9.82567 39.397 8.8433 39.6219 7.74998H45.354C45.1543 8.31482 44.7849 8.80415 44.2964 9.15098C43.8079 9.49781 43.2241 9.68519 42.625 9.68748C42.3681 9.68748 42.1217 9.78954 41.94 9.97122C41.7583 10.1529 41.6562 10.3993 41.6562 10.6562C41.6562 10.9132 41.7583 11.1596 41.94 11.3412C42.1217 11.5229 42.3681 11.625 42.625 11.625C43.7412 11.6236 44.8228 11.2374 45.6875 10.5315C46.5521 9.82567 47.147 8.8433 47.3719 7.74998H49.4062C49.6632 7.74998 49.9096 7.64791 50.0913 7.46624C50.2729 7.28456 50.375 7.03816 50.375 6.78123C50.375 6.5243 50.2729 6.27789 50.0913 6.09622C49.9096 5.91454 49.6632 5.81248 49.4062 5.81248H47.647C47.8255 5.31146 48.1382 4.86915 48.5511 4.53386C48.9639 4.19857 49.461 3.9832 49.9879 3.9113C50.5149 3.8394 51.0515 3.91373 51.5391 4.12617C52.0267 4.33861 52.4465 4.68098 52.7526 5.11586C53.0588 5.55075 53.2395 6.06143 53.2751 6.59209C53.3107 7.12275 53.1997 7.65297 52.9543 8.12482C52.7089 8.59667 52.3385 8.99199 51.8836 9.26758C51.4287 9.54317 50.9068 9.68843 50.375 9.68748C50.1181 9.68748 49.8717 9.78954 49.69 9.97122C49.5083 10.1529 49.4062 10.3993 49.4062 10.6562C49.4062 10.9132 49.5083 11.1596 49.69 11.3412C49.8717 11.5229 50.1181 11.625 50.375 11.625C51.4912 11.6236 52.5728 11.2374 53.4375 10.5315C54.3021 9.82567 54.897 8.8433 55.1219 7.74998H58.125V20.8514C57.971 20.7247 57.8093 20.6079 57.6406 20.5016C56.5281 19.8593 55.206 19.6853 53.9652 20.0177C52.7244 20.3502 51.6664 21.162 51.0241 22.2744L44.4966 33.5788C44.4305 33.3919 44.3083 33.23 44.1467 33.1152C43.9851 33.0004 43.792 32.9383 43.5938 32.9375H42.625V25.1875H45.5312C45.6813 25.1876 45.8292 25.1528 45.9635 25.0859C46.0978 25.0191 46.2148 24.922 46.3051 24.8022C46.3955 24.6825 46.4568 24.5434 46.4842 24.3959C46.5116 24.2484 46.5044 24.0965 46.4632 23.9523L44.5257 17.1711C44.4678 16.9686 44.3455 16.7906 44.1773 16.6638C44.0092 16.5371 43.8043 16.4686 43.5938 16.4687H39.7188C39.5082 16.4686 39.3033 16.5371 39.1352 16.6638C38.967 16.7906 38.8447 16.9686 38.7868 17.1711L36.8493 23.9523C36.8081 24.0965 36.8009 24.2484 36.8283 24.3959C36.8557 24.5434 36.917 24.6825 37.0074 24.8022C37.0977 24.922 37.2147 25.0191 37.349 25.0859C37.4833 25.1528 37.6312 25.1876 37.7812 25.1875H40.6875V32.9375H39.7188C39.4618 32.9375 39.2154 33.0395 39.0337 33.2212C38.8521 33.4029 38.75 33.6493 38.75 33.9062C38.75 34.1632 38.8521 34.4096 39.0337 34.5912C39.2154 34.7729 39.4618 34.875 39.7188 34.875H43.5938C43.6528 34.8689 43.7112 34.8572 43.7681 34.8401L36.0075 48.2825C35.9455 48.3889 35.9047 48.5064 35.8873 48.6283L35.6355 50.3721H3.875V48.4375H32.9375C33.1944 48.4375 33.4408 48.3354 33.6225 48.1537C33.8042 47.9721 33.9062 47.7257 33.9062 47.4687C33.9062 47.2118 33.8042 46.9654 33.6225 46.7837C33.4408 46.602 33.1944 46.5 32.9375 46.5H3.875V27.125C3.875 26.868 3.77294 26.6216 3.59126 26.44C3.40958 26.2583 3.16318 26.1562 2.90625 26.1562C2.64932 26.1562 2.40292 26.2583 2.22124 26.44C2.03956 26.6216 1.9375 26.868 1.9375 27.125V51.3437C1.9375 51.6007 2.03956 51.8471 2.22124 52.0287C2.40292 52.2104 2.64932 52.3125 2.90625 52.3125H35.3594L34.4023 58.9552C34.3746 59.1468 34.4049 59.3424 34.4894 59.5166C34.574 59.6908 34.7088 59.8357 34.8764 59.9326C35.0441 60.0295 35.2369 60.0739 35.4301 60.0601C35.6232 60.0463 35.8078 59.9749 35.96 59.8552L44.1605 53.4033C44.2577 53.3274 44.3393 53.2333 44.4007 53.1262L44.8706 52.3125H57.1562C57.4132 52.3125 57.6596 52.2104 57.8413 52.0287C58.0229 51.8471 58.125 51.6007 58.125 51.3437V48.4375H59.0938C59.3507 48.4375 59.5971 48.3354 59.7788 48.1537C59.9604 47.9721 60.0625 47.7257 60.0625 47.4687V6.78123C60.0625 6.5243 59.9604 6.27789 59.7788 6.09622C59.5971 5.91454 59.3507 5.81248 59.0938 5.81248ZM42.625 3.87498C43.2239 3.87746 43.8075 4.06493 44.2958 4.41175C44.7841 4.75857 45.1534 5.24778 45.353 5.81248H39.897C40.0966 5.24778 40.4659 4.75857 40.9542 4.41175C41.4425 4.06493 42.0261 3.87746 42.625 3.87498ZM34.875 3.87498C35.4739 3.87746 36.0575 4.06493 36.5458 4.41175C37.0341 4.75857 37.4034 5.24778 37.603 5.81248H32.147C32.3466 5.24778 32.7159 4.75857 33.2042 4.41175C33.6925 4.06493 34.2761 3.87746 34.875 3.87498ZM27.125 3.87498C27.7239 3.87746 28.3075 4.06493 28.7958 4.41175C29.2841 4.75857 29.6534 5.24778 29.853 5.81248H24.397C24.5966 5.24778 24.9659 4.75857 25.4542 4.41175C25.9425 4.06493 26.5261 3.87746 27.125 3.87498ZM19.375 3.87498C19.9739 3.87746 20.5575 4.06493 21.0458 4.41175C21.5341 4.75857 21.9034 5.24778 22.103 5.81248H16.647C16.8466 5.24778 17.2159 4.75857 17.7042 4.41175C18.1925 4.06493 18.7761 3.87746 19.375 3.87498ZM11.625 3.87498C12.2239 3.87746 12.8075 4.06493 13.2958 4.41175C13.7841 4.75857 14.1534 5.24778 14.353 5.81248H8.897C9.09664 5.24778 9.46588 4.75857 9.9542 4.41175C10.4425 4.06493 11.0261 3.87746 11.625 3.87498ZM40.4492 18.4062H42.8633L44.2467 23.25H39.0658L40.4492 18.4062ZM54.466 21.8937C55.0216 21.7444 55.6089 21.7634 56.1537 21.9481C56.6984 22.1329 57.1761 22.4752 57.5262 22.9316C57.8763 23.388 58.0831 23.9381 58.1204 24.5121C58.1576 25.0862 58.0237 25.6584 57.7356 26.1562L57.2512 26.9952L52.2137 24.0889L52.6981 23.25C52.8883 22.9181 53.1425 22.6273 53.446 22.3945C53.7495 22.1617 54.0962 21.9915 54.466 21.8937ZM55.3137 30.349L50.2762 27.4427L51.2449 25.7649L56.2824 28.6711L55.3137 30.349ZM37.3037 52.3861L37.6011 50.3207L41.8355 52.7649L40.1954 54.0562L37.3037 52.3861ZM38.1697 48.4142L49.3094 29.1158L50.9873 30.0845L39.8466 49.3801L38.1697 48.4142ZM37.0072 54.4553L38.5572 55.3495L36.6652 56.8375L37.0072 54.4553ZM56.1875 50.375H45.9866L47.1045 48.4375H56.1875V50.375ZM48.2234 46.5L50.1677 43.1316C50.2323 43.0214 50.2745 42.8995 50.2918 42.7729C50.3091 42.6463 50.3012 42.5176 50.2685 42.3941C50.2359 42.2706 50.1791 42.1547 50.1015 42.0532C50.0239 41.9518 49.927 41.8666 49.8163 41.8027C49.7057 41.7389 49.5835 41.6975 49.4568 41.681C49.3301 41.6646 49.2014 41.6733 49.0781 41.7068C48.9548 41.7403 48.8394 41.7978 48.7384 41.8761C48.6374 41.9543 48.553 42.0518 48.4898 42.1629L43.2062 51.3185L41.5274 50.3498L52.668 31.0533L54.3469 32.022L50.4292 38.8033C50.3646 38.9135 50.3225 39.0354 50.3052 39.162C50.2878 39.2885 50.2957 39.4173 50.3284 39.5408C50.3611 39.6643 50.4178 39.7802 50.4954 39.8816C50.573 39.9831 50.6699 40.0683 50.7806 40.1322C50.8912 40.196 51.0134 40.2374 51.1401 40.2539C51.2668 40.2703 51.3955 40.2616 51.5188 40.2281C51.6421 40.1946 51.7575 40.1371 51.8585 40.0588C51.9595 39.9805 52.044 39.8831 52.1071 39.772L58.125 29.3531V46.5H48.2234Z" fill="black"/>
<path d="M10.6562 24.2188V25.3251C9.82686 25.5392 9.0918 26.0221 8.56598 26.6983C8.04015 27.3745 7.75321 28.2059 7.75 29.0625V34.875C7.75 35.9027 8.15826 36.8883 8.88496 37.615C9.61166 38.3417 10.5973 38.75 11.625 38.75H32.9375C33.9652 38.75 34.9508 38.3417 35.6775 37.615C36.4042 36.8883 36.8125 35.9027 36.8125 34.875V32.9375C36.8125 32.6806 36.7104 32.4342 36.5288 32.2525C36.3471 32.0708 36.1007 31.9688 35.8438 31.9688C35.5868 31.9688 35.3404 32.0708 35.1587 32.2525C34.9771 32.4342 34.875 32.6806 34.875 32.9375V34.875C34.875 35.3889 34.6709 35.8817 34.3075 36.245C33.9442 36.6084 33.4514 36.8125 32.9375 36.8125H31V29.0625C31 28.5486 31.2041 28.0558 31.5675 27.6925C31.9308 27.3291 32.4236 27.125 32.9375 27.125C33.4514 27.125 33.9442 27.3291 34.3075 27.6925C34.6709 28.0558 34.875 28.5486 34.875 29.0625C34.875 29.3194 34.9771 29.5658 35.1587 29.7475C35.3404 29.9292 35.5868 30.0312 35.8438 30.0312C36.1007 30.0312 36.3471 29.9292 36.5288 29.7475C36.7104 29.5658 36.8125 29.3194 36.8125 29.0625C36.8093 28.2059 36.5223 27.3745 35.9965 26.6983C35.4707 26.0221 34.7356 25.5392 33.9062 25.3251V24.2188C33.9047 22.9346 33.3939 21.7034 32.4858 20.7954C31.5778 19.8874 30.3467 19.3765 29.0625 19.375H15.5C14.2158 19.3765 12.9847 19.8874 12.0767 20.7954C11.1686 21.7034 10.6578 22.9346 10.6562 24.2188ZM9.6875 34.875V29.0625C9.6875 28.5486 9.89163 28.0558 10.255 27.6925C10.6183 27.3291 11.1111 27.125 11.625 27.125C12.1389 27.125 12.6317 27.3291 12.995 27.6925C13.3584 28.0558 13.5625 28.5486 13.5625 29.0625V36.8125H11.625C11.1111 36.8125 10.6183 36.6084 10.255 36.245C9.89163 35.8817 9.6875 35.3889 9.6875 34.875ZM15.5 34.875C15.5 34.3611 15.7041 33.8683 16.0675 33.505C16.4308 33.1416 16.9236 32.9375 17.4375 32.9375H27.125C27.6389 32.9375 28.1317 33.1416 28.495 33.505C28.8584 33.8683 29.0625 34.3611 29.0625 34.875V36.8125H15.5V34.875ZM15.5 21.3125H29.0625C29.8333 21.3125 30.5725 21.6187 31.1175 22.1637C31.6626 22.7087 31.9688 23.448 31.9688 24.2188V25.3251C31.1394 25.5392 30.4043 26.0221 29.8785 26.6983C29.3527 27.3745 29.0657 28.2059 29.0625 29.0625V31.5386C28.4761 31.1899 27.8072 31.004 27.125 31H17.4375C16.7553 31.004 16.0864 31.1899 15.5 31.5386V29.0625C15.4968 28.2059 15.2098 27.3745 14.684 26.6983C14.1582 26.0221 13.4231 25.5392 12.5938 25.3251V24.2188C12.5938 23.448 12.8999 22.7087 13.445 22.1637C13.99 21.6187 14.7292 21.3125 15.5 21.3125Z" fill="black"/>
<path d="M17.4375 27.125C17.4375 27.3819 17.5396 27.6283 17.7212 27.81C17.9029 27.9917 18.1493 28.0938 18.4062 28.0938C18.6632 28.0938 18.9096 27.9917 19.0913 27.81C19.2729 27.6283 19.375 27.3819 19.375 27.125C19.6319 27.125 19.8783 27.0229 20.06 26.8413C20.2417 26.6596 20.3438 26.4132 20.3438 26.1562C20.3438 25.8993 20.2417 25.6529 20.06 25.4712C19.8783 25.2896 19.6319 25.1875 19.375 25.1875C19.375 24.9306 19.2729 24.6842 19.0913 24.5025C18.9096 24.3208 18.6632 24.2188 18.4062 24.2188C18.1493 24.2188 17.9029 24.3208 17.7212 24.5025C17.5396 24.6842 17.4375 24.9306 17.4375 25.1875C17.1806 25.1875 16.9342 25.2896 16.7525 25.4712C16.5708 25.6529 16.4688 25.8993 16.4688 26.1562C16.4688 26.4132 16.5708 26.6596 16.7525 26.8413C16.9342 27.0229 17.1806 27.125 17.4375 27.125Z" fill="black"/>
<path d="M25.1875 27.125C25.1875 27.3819 25.2896 27.6283 25.4712 27.81C25.6529 27.9917 25.8993 28.0938 26.1562 28.0938C26.4132 28.0938 26.6596 27.9917 26.8413 27.81C27.0229 27.6283 27.125 27.3819 27.125 27.125C27.3819 27.125 27.6283 27.0229 27.81 26.8413C27.9917 26.6596 28.0938 26.4132 28.0938 26.1562C28.0938 25.8993 27.9917 25.6529 27.81 25.4712C27.6283 25.2896 27.3819 25.1875 27.125 25.1875C27.125 24.9306 27.0229 24.6842 26.8413 24.5025C26.6596 24.3208 26.4132 24.2188 26.1562 24.2188C25.8993 24.2188 25.6529 24.3208 25.4712 24.5025C25.2896 24.6842 25.1875 24.9306 25.1875 25.1875C24.9306 25.1875 24.6842 25.2896 24.5025 25.4712C24.3208 25.6529 24.2188 25.8993 24.2188 26.1562C24.2188 26.4132 24.3208 26.6596 24.5025 26.8413C24.6842 27.0229 24.9306 27.125 25.1875 27.125Z" fill="black"/>
<path d="M7.75 43.5938C7.75 43.8507 7.85206 44.0971 8.03374 44.2788C8.21542 44.4604 8.46182 44.5625 8.71875 44.5625C8.97568 44.5625 9.22208 44.4604 9.40376 44.2788C9.58544 44.0971 9.6875 43.8507 9.6875 43.5938H34.875C34.875 43.8507 34.9771 44.0971 35.1587 44.2788C35.3404 44.4604 35.5868 44.5625 35.8438 44.5625C36.1007 44.5625 36.3471 44.4604 36.5288 44.2788C36.7104 44.0971 36.8125 43.8507 36.8125 43.5938V41.6562C36.8125 41.3993 36.7104 41.1529 36.5288 40.9712C36.3471 40.7896 36.1007 40.6875 35.8438 40.6875C35.5868 40.6875 35.3404 40.7896 35.1587 40.9712C34.9771 41.1529 34.875 41.3993 34.875 41.6562H9.6875C9.6875 41.3993 9.58544 41.1529 9.40376 40.9712C9.22208 40.7896 8.97568 40.6875 8.71875 40.6875C8.46182 40.6875 8.21542 40.7896 8.03374 40.9712C7.85206 41.1529 7.75 41.3993 7.75 41.6562V43.5938Z" fill="black"/>
<path d="M14.5312 16.4688H30.0312C30.0312 16.7257 30.1333 16.9721 30.315 17.1538C30.4967 17.3354 30.7431 17.4375 31 17.4375C31.2569 17.4375 31.5033 17.3354 31.685 17.1538C31.8667 16.9721 31.9688 16.7257 31.9688 16.4688V14.5312C31.9688 14.2743 31.8667 14.0279 31.685 13.8462C31.5033 13.6646 31.2569 13.5625 31 13.5625C30.7431 13.5625 30.4967 13.6646 30.315 13.8462C30.1333 14.0279 30.0312 14.2743 30.0312 14.5312H14.5312C14.5312 14.2743 14.4292 14.0279 14.2475 13.8462C14.0658 13.6646 13.8194 13.5625 13.5625 13.5625C13.3056 13.5625 13.0592 13.6646 12.8775 13.8462C12.6958 14.0279 12.5938 14.2743 12.5938 14.5312V16.4688C12.5938 16.7257 12.6958 16.9721 12.8775 17.1538C13.0592 17.3354 13.3056 17.4375 13.5625 17.4375C13.8194 17.4375 14.0658 17.3354 14.2475 17.1538C14.4292 16.9721 14.5312 16.7257 14.5312 16.4688Z" fill="black"/>
</svg>
