<svg width="68" height="68" viewBox="0 0 68 68" fill="none" xmlns="http://www.w3.org/2000/svg">
<path d="M17 60.5625C17 63.4918 19.3832 65.875 22.3125 65.875H58.4375C61.3668 65.875 63.75 63.4918 63.75 60.5625V7.4375C63.75 4.50819 61.3668 2.125 58.4375 2.125H22.3125C19.3832 2.125 17 4.50819 17 7.4375V42.5H19.125V7.4375C19.125 5.68012 20.5551 4.25 22.3125 4.25H58.4375C60.1949 4.25 61.625 5.68012 61.625 7.4375V60.5625C61.625 62.3199 60.1949 63.75 58.4375 63.75H22.3125C20.5551 63.75 19.125 62.3199 19.125 60.5625V52.0625H17V60.5625Z" fill="black"/>
<path d="M21.25 56.3125C21.25 56.899 21.726 57.375 22.3125 57.375H58.4375C59.024 57.375 59.5 56.899 59.5 56.3125V7.4375C59.5 6.851 59.024 6.375 58.4375 6.375H22.3125C21.726 6.375 21.25 6.851 21.25 7.4375V42.5H23.375V8.5H57.375V55.25H23.375V52.0625H21.25V56.3125Z" fill="black"/>
<path d="M35.0625 59.5H45.6875V61.625H35.0625V59.5Z" fill="black"/>
<path d="M3.1875 20.1876V62.6876C3.1875 64.445 4.61762 65.8751 6.375 65.8751C8.13238 65.8751 9.5625 64.445 9.5625 62.6876V13.8126C9.5625 13.6479 9.52425 13.4843 9.45094 13.3376L7.32594 9.08764C6.96575 8.36727 5.78531 8.36727 5.42512 9.08764L3.30012 13.3376C3.22575 13.4843 3.1875 13.6479 3.1875 13.8126V18.0626H5.3125V14.0633L6.375 11.9383L7.4375 14.0633V56.3126H5.3125V20.1876H3.1875ZM7.4375 58.4376V62.6876C7.4375 63.273 6.96044 63.7501 6.375 63.7501C5.78956 63.7501 5.3125 63.273 5.3125 62.6876V58.4376H7.4375Z" fill="black"/>
<path d="M7.4375 2.125H6.375C5.7885 2.125 5.3125 2.601 5.3125 3.1875V4.25H7.4375V2.125Z" fill="black"/>
<path d="M20.3046 49.9375V47.8125H19.1273C18.884 47.8125 18.6428 47.7913 18.4101 47.752L18.0542 49.8472C18.4027 49.9067 18.7629 49.9375 19.1252 49.9375H20.3046Z" fill="black"/>
<path d="M12.75 38.5518H14.875V40.6289H12.75V38.5518Z" fill="black"/>
<path d="M12.75 9.47632H14.875V11.5535H12.75V9.47632Z" fill="black"/>
<path d="M12.0137 6.10833C12.3282 6.57051 12.546 7.08051 12.6597 7.62558L14.74 7.18995C14.5679 6.37076 14.2417 5.6047 13.7689 4.91089L12.0137 6.10833Z" fill="black"/>
<path d="M12.75 30.2451H14.875V32.3223H12.75V30.2451Z" fill="black"/>
<path d="M12.75 17.7842H14.875V19.8614H12.75V17.7842Z" fill="black"/>
<path d="M12.75 13.6309H14.875V15.708H12.75V13.6309Z" fill="black"/>
<path d="M12.75 34.3984H14.875V36.4756H12.75V34.3984Z" fill="black"/>
<path d="M12.75 26.0918H14.875V28.169H12.75V26.0918Z" fill="black"/>
<path d="M12.75 21.9375H14.875V24.0147H12.75V21.9375Z" fill="black"/>
<path d="M12.0062 3.17572C11.306 2.71354 10.5336 2.39904 9.7112 2.24072L9.30957 4.32641C9.8557 4.4316 10.3699 4.64091 10.8353 4.94797L12.0062 3.17572Z" fill="black"/>
<path d="M22.3804 47.8125H24.4576V49.9375H22.3804V47.8125Z" fill="black"/>
<path d="M14.875 42.7061H12.75V43.5624C12.75 44.0512 12.8053 44.5389 12.9158 45.0117L14.9855 44.5304C14.9122 44.2159 14.875 43.8897 14.875 43.5624V42.7061Z" fill="black"/>
<path d="M15.7389 48.9642L16.8694 47.1653C16.3956 46.8678 15.9907 46.4864 15.6667 46.0327L13.938 47.2695C14.4246 47.9484 15.0302 48.519 15.7389 48.9642Z" fill="black"/>
<path d="M55.25 15.9375V11.6875C55.25 11.101 54.774 10.625 54.1875 10.625H49.9375V12.75H53.125V15.9375H55.25Z" fill="black"/>
<path d="M25.5 11.6875V15.9375H27.625V12.75H30.8125V10.625H26.5625C25.976 10.625 25.5 11.101 25.5 11.6875Z" fill="black"/>
<path d="M30.8125 17C30.226 17 29.75 17.476 29.75 18.0625V20.1875H28.6875C28.101 20.1875 27.625 20.6635 27.625 21.25V28.6875C27.625 29.274 28.101 29.75 28.6875 29.75H32.9375H47.8125H52.0625C52.649 29.75 53.125 29.274 53.125 28.6875V21.25C53.125 20.6635 52.649 20.1875 52.0625 20.1875H51V18.0625C51 17.476 50.524 17 49.9375 17H30.8125ZM31.875 27.625H29.75V22.3125H31.875V27.625ZM34 25.5H46.75V27.625H34V25.5ZM51 27.625H48.875V22.3125H51V27.625ZM47.8125 20.1875C47.226 20.1875 46.75 20.6635 46.75 21.25V23.375H34V21.25C34 20.6635 33.524 20.1875 32.9375 20.1875H31.875V19.125H48.875V20.1875H47.8125Z" fill="black"/>
<path d="M53.125 39.3125V35.0625C53.125 34.476 52.649 34 52.0625 34H37.1875C36.601 34 36.125 34.476 36.125 35.0625V39.3125C36.125 39.899 36.601 40.375 37.1875 40.375H42.0601L39.6238 42.8113L41.1262 44.3137L44.625 40.8149L48.1238 44.3137L49.6262 42.8113L47.1899 40.375H52.0625C52.649 40.375 53.125 39.899 53.125 39.3125ZM51 38.25H38.25V36.125H51V38.25Z" fill="black"/>
<path d="M21.8718 45.5186C21.8506 45.967 22.1141 46.3803 22.5284 46.5503L26.4299 48.16L27.4839 52.2474C27.5955 52.682 27.9684 52.9997 28.4147 53.04C28.4476 53.0432 28.4806 53.0443 28.5135 53.0443C28.9226 53.0443 29.2997 52.8073 29.4761 52.4312L33.9025 42.9484C34.0799 42.568 34.0162 42.1186 33.741 41.802C33.4658 41.4853 33.0291 41.3589 32.6275 41.4832L22.623 44.5517C22.1927 44.6845 21.8931 45.0713 21.8718 45.5186ZM30.9636 44.217L28.8014 48.8495L28.3541 47.1155C28.2702 46.7915 28.0396 46.5258 27.7304 46.3983L26.0751 45.7152L30.9636 44.217Z" fill="black"/>
</svg>
