<svg width="62" height="62" viewBox="0 0 62 62" fill="none" xmlns="http://www.w3.org/2000/svg">
<path d="M59.0938 17.4375C59.3507 17.4375 59.5971 17.3354 59.7788 17.1538C59.9604 16.9721 60.0625 16.7257 60.0625 16.4688V6.78125C60.061 5.49708 59.5501 4.26595 58.6421 3.3579C57.7341 2.44985 56.5029 1.93904 55.2188 1.9375H51.3438C51.0868 1.9375 50.8404 2.03956 50.6587 2.22124C50.4771 2.40292 50.375 2.64932 50.375 2.90625V5.8125H14.5312C14.2743 5.8125 14.0279 5.91456 13.8462 6.09624C13.6646 6.27792 13.5625 6.52432 13.5625 6.78125V40.6875H6.78125C6.01046 40.6875 5.27125 40.3813 4.72622 39.8363C4.18119 39.2912 3.875 38.552 3.875 37.7812C3.875 37.0105 4.18119 36.2713 4.72622 35.7262C5.27125 35.1812 6.01046 34.875 6.78125 34.875H10.6562C10.9132 34.875 11.1596 34.7729 11.3413 34.5913C11.5229 34.4096 11.625 34.1632 11.625 33.9062V23.25C11.625 22.9931 11.5229 22.7467 11.3413 22.565C11.1596 22.3833 10.9132 22.2812 10.6562 22.2812C10.3993 22.2812 10.1529 22.3833 9.97124 22.565C9.78956 22.7467 9.6875 22.9931 9.6875 23.25V32.9375H6.78125C5.73298 32.9361 4.71277 33.2762 3.875 33.9062V6.78125C3.875 6.01046 4.18119 5.27125 4.72622 4.72622C5.27125 4.18119 6.01046 3.875 6.78125 3.875H9.6875V19.375C9.6875 19.6319 9.78956 19.8783 9.97124 20.06C10.1529 20.2417 10.3993 20.3438 10.6562 20.3438C10.9132 20.3438 11.1596 20.2417 11.3413 20.06C11.5229 19.8783 11.625 19.6319 11.625 19.375V2.90625C11.625 2.64932 11.5229 2.40292 11.3413 2.22124C11.1596 2.03956 10.9132 1.9375 10.6562 1.9375H6.78125C5.49708 1.93904 4.26595 2.44985 3.3579 3.3579C2.44985 4.26595 1.93904 5.49708 1.9375 6.78125V37.7812C1.93904 39.0654 2.44985 40.2966 3.3579 41.2046C4.26595 42.1126 5.49708 42.6235 6.78125 42.625H17.4375C17.6944 42.625 17.9408 42.5229 18.1225 42.3413C18.3042 42.1596 18.4062 41.9132 18.4062 41.6562C18.4062 41.3993 18.3042 41.1529 18.1225 40.9712C17.9408 40.7896 17.6944 40.6875 17.4375 40.6875H15.5V35.8438H18.4062C18.6632 35.8438 18.9096 35.7417 19.0913 35.56C19.2729 35.3783 19.375 35.1319 19.375 34.875V29.0625C19.375 28.8056 19.2729 28.5592 19.0913 28.3775C18.9096 28.1958 18.6632 28.0938 18.4062 28.0938H15.5V23.25H19.375C19.6319 23.25 19.8783 23.1479 20.06 22.9663C20.2417 22.7846 20.3438 22.5382 20.3438 22.2812C20.3438 22.0243 20.2417 21.7779 20.06 21.5962C19.8783 21.4146 19.6319 21.3125 19.375 21.3125H15.5V7.75H17.4375V10.6562C17.4375 10.9132 17.5396 11.1596 17.7212 11.3413C17.9029 11.5229 18.1493 11.625 18.4062 11.625V13.5625C18.4062 14.5902 18.8145 15.5758 19.5412 16.3025C20.2679 17.0292 21.2535 17.4375 22.2812 17.4375C23.309 17.4375 24.2946 17.0292 25.0213 16.3025C25.748 15.5758 26.1562 14.5902 26.1562 13.5625V11.625C26.4132 11.625 26.6596 11.5229 26.8413 11.3413C27.0229 11.1596 27.125 10.9132 27.125 10.6562V7.75H29.0625V21.3125H25.1875C25.0371 21.3125 24.8888 21.3475 24.7543 21.4148C24.6197 21.482 24.5027 21.5797 24.4125 21.7L21.5063 25.575C21.4299 25.6768 21.3744 25.7926 21.3428 25.9158C21.3112 26.0391 21.3042 26.1673 21.3222 26.2933C21.3402 26.4192 21.3828 26.5404 21.4477 26.6498C21.5125 26.7593 21.5982 26.8549 21.7 26.9312C21.8018 27.0076 21.9176 27.0631 22.0408 27.0947C22.1641 27.1263 22.2923 27.1333 22.4183 27.1153C22.5442 27.0973 22.6654 27.0547 22.7748 26.9898C22.8843 26.925 22.9799 26.8393 23.0562 26.7375L25.6719 23.25H30.0312C30.2882 23.25 30.5346 23.1479 30.7163 22.9663C30.8979 22.7846 31 22.5382 31 22.2812V7.75H46.5V9.6875H35.8438C35.5868 9.6875 35.3404 9.78956 35.1587 9.97124C34.9771 10.1529 34.875 10.3993 34.875 10.6562V26.1562C34.875 26.4132 34.9771 26.6596 35.1587 26.8413C35.3404 27.0229 35.5868 27.125 35.8438 27.125H46.5V31C46.5 31.2569 46.6021 31.5033 46.7837 31.685C46.9654 31.8667 47.2118 31.9688 47.4688 31.9688C47.7257 31.9688 47.9721 31.8667 48.1538 31.685C48.3354 31.5033 48.4375 31.2569 48.4375 31V7.75H50.375V33.9062C50.375 34.1632 50.4771 34.4096 50.6587 34.5913C50.8404 34.7729 51.0868 34.875 51.3438 34.875H55.2188C55.9895 34.875 56.7287 35.1812 57.2738 35.7262C57.8188 36.2713 58.125 37.0105 58.125 37.7812C58.125 38.552 57.8188 39.2912 57.2738 39.8363C56.7287 40.3813 55.9895 40.6875 55.2188 40.6875H48.4375V37.7812C48.4376 37.636 48.4049 37.4925 48.342 37.3616C48.2792 37.2306 48.1876 37.1155 48.0742 37.0247L43.2305 33.1497C43.0298 32.9891 42.7736 32.9148 42.5181 32.9431C42.2627 32.9715 42.029 33.1001 41.8684 33.3008C41.7078 33.5014 41.6335 33.7577 41.6619 34.0131C41.6902 34.2685 41.8189 34.5023 42.0195 34.6628L46.5 38.2463V40.6875H39.5405C39.6552 40.3773 39.7155 40.0495 39.7188 39.7188V37.7812C39.7188 37.5243 39.6167 37.2779 39.435 37.0962C39.2533 36.9146 39.0069 36.8125 38.75 36.8125H23.25C22.9931 36.8125 22.7467 36.9146 22.565 37.0962C22.3833 37.2779 22.2812 37.5243 22.2812 37.7812V39.7188C22.2845 40.0495 22.3448 40.3773 22.4595 40.6875H21.3125C21.0556 40.6875 20.8092 40.7896 20.6275 40.9712C20.4458 41.1529 20.3438 41.3993 20.3438 41.6562C20.3438 41.9132 20.4458 42.1596 20.6275 42.3413C20.8092 42.5229 21.0556 42.625 21.3125 42.625H55.2188C56.5029 42.6235 57.7341 42.1126 58.6421 41.2046C59.5501 40.2966 60.061 39.0654 60.0625 37.7812V20.3438C60.0625 20.0868 59.9604 19.8404 59.7788 19.6587C59.5971 19.4771 59.3507 19.375 59.0938 19.375C58.8368 19.375 58.5904 19.4771 58.4087 19.6587C58.2271 19.8404 58.125 20.0868 58.125 20.3438V33.9062C57.2872 33.2762 56.267 32.9361 55.2188 32.9375H52.3125V3.875H55.2188C55.9895 3.875 56.7287 4.18119 57.2738 4.72622C57.8188 5.27125 58.125 6.01046 58.125 6.78125V16.4688C58.125 16.7257 58.2271 16.9721 58.4087 17.1538C58.5904 17.3354 58.8368 17.4375 59.0938 17.4375ZM17.4375 30.0312V33.9062H15.5V30.0312H17.4375ZM24.2188 13.5625C24.2188 14.0764 24.0146 14.5692 23.6513 14.9325C23.2879 15.2959 22.7951 15.5 22.2812 15.5C21.7674 15.5 21.2746 15.2959 20.9112 14.9325C20.5479 14.5692 20.3438 14.0764 20.3438 13.5625V11.625H24.2188V13.5625ZM25.1875 9.6875H19.375V7.75H25.1875V9.6875ZM36.8125 11.625H46.5V13.5625H36.8125V11.625ZM36.8125 25.1875V15.5H46.5V25.1875H36.8125ZM25.1875 40.6875C24.9306 40.6875 24.6842 40.5854 24.5025 40.4038C24.3208 40.2221 24.2188 39.9757 24.2188 39.7188V38.75H37.7812V39.7188C37.7812 39.9757 37.6792 40.2221 37.4975 40.4038C37.3158 40.5854 37.0694 40.6875 36.8125 40.6875H25.1875Z" fill="black"/>
<path d="M34.875 31C34.875 30.2336 34.6477 29.4844 34.2219 28.8472C33.7962 28.2099 33.191 27.7133 32.4829 27.42C31.7748 27.1267 30.9957 27.0499 30.244 27.1995C29.4924 27.349 28.8019 27.718 28.26 28.26C27.718 28.8019 27.349 29.4924 27.1995 30.244C27.0499 30.9957 27.1267 31.7748 27.42 32.4829C27.7133 33.191 28.2099 33.7962 28.8472 34.2219C29.4844 34.6477 30.2336 34.875 31 34.875C32.0277 34.875 33.0133 34.4667 33.74 33.74C34.4667 33.0133 34.875 32.0277 34.875 31ZM29.0625 31C29.0625 30.6168 29.1761 30.2422 29.389 29.9236C29.6019 29.605 29.9045 29.3566 30.2586 29.21C30.6126 29.0633 31.0022 29.025 31.378 29.0997C31.7538 29.1745 32.0991 29.359 32.37 29.63C32.641 29.9009 32.8255 30.2462 32.9003 30.622C32.975 30.9979 32.9367 31.3874 32.79 31.7415C32.6434 32.0955 32.395 32.3981 32.0764 32.611C31.7578 32.8239 31.3832 32.9375 31 32.9375C30.4861 32.9375 29.9933 32.7334 29.63 32.37C29.2666 32.0067 29.0625 31.5139 29.0625 31Z" fill="black"/>
<path d="M51.3439 44.5625H25.1876C25.0948 44.5625 25.0025 44.5759 24.9135 44.6022L19.101 46.3169C18.9047 46.3736 18.7313 46.4908 18.6057 46.652C18.48 46.8131 18.4086 47.0098 18.4015 47.214C18.3944 47.4182 18.452 47.6194 18.5662 47.7889C18.6803 47.9584 18.8451 48.0874 19.037 48.1575L24.8495 50.3188C24.9581 50.3572 25.0725 50.3762 25.1876 50.375H37.7814C38.0383 50.375 38.2847 50.2729 38.4664 50.0913C38.6481 49.9096 38.7501 49.6632 38.7501 49.4062C38.7501 49.1493 38.6481 48.9029 38.4664 48.7212C38.2847 48.5396 38.0383 48.4375 37.7814 48.4375H26.1564V46.5H44.5626V48.4375H41.6564C41.3995 48.4375 41.1531 48.5396 40.9714 48.7212C40.7897 48.9029 40.6876 49.1493 40.6876 49.4062C40.6876 49.6632 40.7897 49.9096 40.9714 50.0913C41.1531 50.2729 41.3995 50.375 41.6564 50.375H51.3439C52.1147 50.375 52.8539 50.0688 53.3989 49.5238C53.9439 48.9788 54.2501 48.2395 54.2501 47.4688C54.2501 46.698 53.9439 45.9588 53.3989 45.4137C52.8539 44.8687 52.1147 44.5625 51.3439 44.5625ZM24.2189 46.8274V48.0122L22.4403 47.3515L24.2189 46.8274ZM46.5001 46.5H48.4376V48.4375H46.5001V46.5ZM51.3439 48.4375H50.3751V46.5H51.3439C51.6008 46.5 51.8472 46.6021 52.0289 46.7837C52.2106 46.9654 52.3126 47.2118 52.3126 47.4688C52.3126 47.7257 52.2106 47.9721 52.0289 48.1538C51.8472 48.3354 51.6008 48.4375 51.3439 48.4375Z" fill="black"/>
<path d="M53.2812 52.3125H2.90625C2.64932 52.3125 2.40292 52.4146 2.22124 52.5962C2.03956 52.7779 1.9375 53.0243 1.9375 53.2812V59.0938C1.9375 59.3507 2.03956 59.5971 2.22124 59.7788C2.40292 59.9604 2.64932 60.0625 2.90625 60.0625H33.9062C34.1632 60.0625 34.4096 59.9604 34.5913 59.7788C34.7729 59.5971 34.875 59.3507 34.875 59.0938C34.875 58.8368 34.7729 58.5904 34.5913 58.4087C34.4096 58.2271 34.1632 58.125 33.9062 58.125H3.875V54.25H5.8125V55.2188C5.8125 55.4757 5.91456 55.7221 6.09624 55.9038C6.27792 56.0854 6.52432 56.1875 6.78125 56.1875C7.03818 56.1875 7.28458 56.0854 7.46626 55.9038C7.64794 55.7221 7.75 55.4757 7.75 55.2188V54.25H9.6875V55.2188C9.6875 55.4757 9.78956 55.7221 9.97124 55.9038C10.1529 56.0854 10.3993 56.1875 10.6562 56.1875C10.9132 56.1875 11.1596 56.0854 11.3413 55.9038C11.5229 55.7221 11.625 55.4757 11.625 55.2188V54.25H13.5625V55.2188C13.5625 55.4757 13.6646 55.7221 13.8462 55.9038C14.0279 56.0854 14.2743 56.1875 14.5312 56.1875C14.7882 56.1875 15.0346 56.0854 15.2163 55.9038C15.3979 55.7221 15.5 55.4757 15.5 55.2188V54.25H17.4375V55.2188C17.4375 55.4757 17.5396 55.7221 17.7212 55.9038C17.9029 56.0854 18.1493 56.1875 18.4062 56.1875C18.6632 56.1875 18.9096 56.0854 19.0913 55.9038C19.2729 55.7221 19.375 55.4757 19.375 55.2188V54.25H21.3125V55.2188C21.3125 55.4757 21.4146 55.7221 21.5962 55.9038C21.7779 56.0854 22.0243 56.1875 22.2812 56.1875C22.5382 56.1875 22.7846 56.0854 22.9663 55.9038C23.1479 55.7221 23.25 55.4757 23.25 55.2188V54.25H25.1875V55.2188C25.1875 55.4757 25.2896 55.7221 25.4712 55.9038C25.6529 56.0854 25.8993 56.1875 26.1562 56.1875C26.4132 56.1875 26.6596 56.0854 26.8413 55.9038C27.0229 55.7221 27.125 55.4757 27.125 55.2188V54.25H29.0625V55.2188C29.0625 55.4757 29.1646 55.7221 29.3462 55.9038C29.5279 56.0854 29.7743 56.1875 30.0312 56.1875C30.2882 56.1875 30.5346 56.0854 30.7163 55.9038C30.8979 55.7221 31 55.4757 31 55.2188V54.25H32.9375V55.2188C32.9375 55.4757 33.0396 55.7221 33.2212 55.9038C33.4029 56.0854 33.6493 56.1875 33.9062 56.1875C34.1632 56.1875 34.4096 56.0854 34.5913 55.9038C34.7729 55.7221 34.875 55.4757 34.875 55.2188V54.25H36.8125V55.2188C36.8125 55.4757 36.9146 55.7221 37.0962 55.9038C37.2779 56.0854 37.5243 56.1875 37.7812 56.1875C38.0382 56.1875 38.2846 56.0854 38.4663 55.9038C38.6479 55.7221 38.75 55.4757 38.75 55.2188V54.25H40.6875V55.2188C40.6875 55.4757 40.7896 55.7221 40.9712 55.9038C41.1529 56.0854 41.3993 56.1875 41.6562 56.1875C41.9132 56.1875 42.1596 56.0854 42.3413 55.9038C42.5229 55.7221 42.625 55.4757 42.625 55.2188V54.25H44.5625V55.2188C44.5625 55.4757 44.6646 55.7221 44.8462 55.9038C45.0279 56.0854 45.2743 56.1875 45.5312 56.1875C45.7882 56.1875 46.0346 56.0854 46.2163 55.9038C46.3979 55.7221 46.5 55.4757 46.5 55.2188V54.25H48.4375V55.2188C48.4375 55.4757 48.5396 55.7221 48.7212 55.9038C48.9029 56.0854 49.1493 56.1875 49.4062 56.1875C49.6632 56.1875 49.9096 56.0854 50.0913 55.9038C50.2729 55.7221 50.375 55.4757 50.375 55.2188V54.25H52.3125V58.125H37.7812C37.5243 58.125 37.2779 58.2271 37.0962 58.4087C36.9146 58.5904 36.8125 58.8368 36.8125 59.0938C36.8125 59.3507 36.9146 59.5971 37.0962 59.7788C37.2779 59.9604 37.5243 60.0625 37.7812 60.0625H53.2812C53.5382 60.0625 53.7846 59.9604 53.9663 59.7788C54.1479 59.5971 54.25 59.3507 54.25 59.0938V53.2812C54.25 53.0243 54.1479 52.7779 53.9663 52.5962C53.7846 52.4146 53.5382 52.3125 53.2812 52.3125Z" fill="black"/>
</svg>
