<svg width="59" height="59" viewBox="0 0 59 59" fill="none" xmlns="http://www.w3.org/2000/svg">
<path d="M6.84829 32.1067C6.84829 31.5979 7.26072 31.1855 7.76948 31.1855H39.4381C39.9468 31.1855 40.3593 31.5979 40.3593 32.1067C40.3593 32.6155 39.9468 33.0279 39.4381 33.0279H7.76948C7.26072 33.0279 6.84829 32.6155 6.84829 32.1067ZM57.6554 45.3655C57.6554 52.3755 51.9522 58.0787 44.9421 58.0787C44.6719 58.0787 44.4039 58.0692 44.1378 58.0525C44.033 58.0694 43.9293 58.0787 43.8283 58.0787H3.3825C2.25862 58.0787 1.34424 57.1642 1.34424 56.0404V2.96001C1.34424 1.83602 2.25874 0.921631 3.3825 0.921631H37.5663C38.1171 0.921631 38.6146 1.1279 39.0048 1.5182L45.2666 7.78004C45.6569 8.17033 45.8632 8.66769 45.8632 9.21862V32.6859C52.4449 33.1594 57.6554 38.6651 57.6554 45.3655ZM38.9481 4.06661V7.83673H42.7182L38.9481 4.06661ZM38.3561 56.2363C36.7856 55.2813 35.4374 53.9956 34.4087 52.4767H7.76948C7.26072 52.4767 6.84829 52.0643 6.84829 51.5555C6.84829 51.0467 7.26072 50.6343 7.76948 50.6343H33.3732C32.939 49.6848 32.6179 48.673 32.4284 47.6162H7.76948C7.26072 47.6162 6.84829 47.2038 6.84829 46.695C6.84829 46.1863 7.26072 45.7738 7.76948 45.7738H32.2362C32.2318 45.6382 32.2289 45.5022 32.2289 45.3656C32.2289 44.4701 32.3225 43.5961 32.4995 42.7524H7.76948C7.26072 42.7524 6.84829 42.34 6.84829 41.8312C6.84829 41.3225 7.26072 40.91 7.76948 40.91H33.0354C33.4423 39.8263 33.9931 38.8125 34.6645 37.8919H7.76948C7.26072 37.8919 6.84829 37.4795 6.84829 36.9707C6.84829 36.462 7.26072 36.0496 7.76948 36.0496H36.3013C38.3602 34.1386 41.0507 32.8997 44.0209 32.686V9.6791H38.5856C37.7696 9.6791 37.1057 9.01523 37.1057 8.19926V2.76388H3.3825C3.27626 2.76388 3.18661 2.85354 3.18661 2.9599V56.0403C3.18661 56.1466 3.27626 56.2362 3.3825 56.2362L38.3561 56.2363ZM55.813 45.3655C55.813 39.3712 50.9364 34.4946 44.9421 34.4946C38.9479 34.4946 34.0713 39.3712 34.0713 45.3655C34.0713 51.3597 38.9479 56.2363 44.9421 56.2363C50.9364 56.2363 55.813 51.3596 55.813 45.3655ZM52.2618 43.7222C51.3652 44.6265 50.473 45.5309 49.5807 46.4356C48.1768 47.859 46.7251 49.3308 45.2863 50.7695C44.7658 51.29 44.0822 51.5501 43.3986 51.5501C42.7149 51.5501 42.0313 51.2899 41.5108 50.7695L37.6337 46.8957C37.1294 46.3914 36.8516 45.721 36.8516 45.0078C36.8516 44.2946 37.1294 43.6241 37.6335 43.12C38.1375 42.6158 38.808 42.3381 39.5212 42.3381C40.2343 42.3381 40.9048 42.6158 41.4089 43.12L43.3898 45.0986L48.4715 39.9646C48.9754 39.4582 49.6446 39.1793 50.3572 39.1774C51.0684 39.1725 51.741 39.451 52.2456 39.9531C53.286 40.9838 53.2939 42.6752 52.2618 43.7222ZM50.9477 41.2606C50.7911 41.1047 50.5847 41.0197 50.3648 41.0197C50.364 41.0197 50.3632 41.0197 50.3624 41.0197C50.1415 41.0204 49.9344 41.1066 49.7792 41.2624L44.0484 47.0521C43.876 47.2264 43.6414 47.3246 43.3963 47.3254C43.3955 47.3254 43.3945 47.3254 43.3937 47.3254C43.1497 47.3254 42.9155 47.2284 42.7428 47.0559L40.1068 44.4231C39.9503 44.2665 39.7424 44.1804 39.5214 44.1804C39.3004 44.1804 39.0926 44.2665 38.9366 44.4227C38.7803 44.5789 38.6941 44.7867 38.6941 45.0078C38.6941 45.2288 38.7802 45.4366 38.9365 45.5926L42.8135 49.4665C43.1363 49.7893 43.6613 49.7893 43.9838 49.4668C45.418 48.0324 46.8675 46.563 48.2692 45.1419C49.1626 44.2362 50.0559 43.3303 50.9517 42.4269C51.2706 42.1035 51.2695 41.5794 50.9477 41.2606ZM8.43668 14.2292C7.84058 13.0514 8.08718 11.6533 9.05077 10.7509C9.21348 10.5983 9.3596 10.4629 9.49062 10.3415C9.98901 9.87949 10.2392 9.64764 10.3546 9.44759C10.4702 9.24708 10.5513 8.89182 10.6984 8.24685C10.7377 8.07492 10.7814 7.88352 10.8315 7.66906C11.1284 6.38708 12.2149 5.47362 13.5343 5.39803C13.7579 5.38581 13.9551 5.37602 14.1324 5.36726C14.7917 5.33476 15.155 5.3169 15.3721 5.23796C15.5891 5.15903 15.8611 4.95276 16.4033 4.5416C16.5447 4.43455 16.702 4.31528 16.8794 4.18242C17.936 3.38984 19.3568 3.38937 20.4143 4.18242C20.5916 4.31517 20.7488 4.43455 20.8901 4.5416C21.4322 4.95264 21.7044 5.15903 21.9214 5.23796C22.1385 5.31702 22.5017 5.33476 23.1611 5.36726C23.3383 5.3759 23.5356 5.38569 23.7572 5.39791C25.0789 5.47362 26.1653 6.3872 26.4627 7.67137C26.5123 7.88352 26.556 8.07492 26.5952 8.24685C26.7422 8.89182 26.8234 9.24708 26.9389 9.44759C27.0544 9.64752 27.3046 9.87949 27.803 10.3415C27.9341 10.4629 28.0801 10.5983 28.2434 10.7514C29.2057 11.6568 29.4515 13.0544 28.8563 14.2303C28.7565 14.4276 28.6667 14.6027 28.5856 14.7602C28.284 15.3481 28.1178 15.6717 28.0775 15.8993C28.0371 16.1262 28.0795 16.4641 28.1637 17.1374C28.1858 17.3151 28.2106 17.5133 28.2372 17.7363C28.3906 19.0233 27.707 20.2306 26.5333 20.7653L28.5443 25.4382C28.6799 25.7534 28.6291 26.118 28.4123 26.3841C28.1957 26.6502 27.8493 26.7741 27.5127 26.7046L24.8494 26.1577L23.4144 28.47C23.2456 28.742 22.9488 28.9055 22.6319 28.9055C22.6091 28.9055 22.5863 28.9046 22.5634 28.903C22.2211 28.8775 21.9215 28.664 21.7858 28.3488L19.978 24.1533C19.9365 24.1406 19.8959 24.1281 19.8566 24.116C19.2052 23.9154 18.8783 23.8147 18.6467 23.8147C18.489 23.8147 18.287 23.8615 17.969 23.9544L15.4314 29.4084C15.2866 29.7196 14.9807 29.9245 14.6377 29.94C14.6238 29.9406 14.6099 29.941 14.5961 29.941C14.2688 29.941 13.9647 29.7669 13.7995 29.4821L12.4336 27.1279L9.75462 27.5982C9.41664 27.6574 9.07335 27.5238 8.86455 27.2516C8.65563 26.9792 8.61541 26.6134 8.76026 26.3021L11.2407 20.9739C11.1118 20.9196 10.9724 20.8608 10.8208 20.796C9.60908 20.2773 8.90016 19.0478 9.0563 17.7364C9.08234 17.5178 9.10666 17.3231 9.12844 17.1481C9.21025 16.4921 9.25542 16.1306 9.21532 15.9024C9.17534 15.675 9.02023 15.3719 8.71094 14.768C8.62924 14.6084 8.53809 14.4303 8.43668 14.2292ZM15.7278 24.4047C14.8573 24.3229 14.0527 23.8548 13.5479 23.0824C13.4275 22.8981 13.3211 22.7334 13.2256 22.5855C13.0548 22.3209 12.9236 22.1176 12.814 21.9602L11.1762 25.4783L12.7486 25.2022C13.129 25.1357 13.5108 25.3132 13.7046 25.6471L14.5067 27.0295L15.7278 24.4047ZM26.1544 24.545L24.8576 21.5315C24.838 21.5456 24.8193 21.5596 24.8025 21.5738C24.6252 21.7228 24.4275 22.0289 24.0689 22.5845C23.9733 22.7328 23.8667 22.8979 23.7461 23.0822C23.3374 23.7073 22.7322 24.1335 22.0547 24.3169L22.7798 25.9994L23.6231 24.6404C23.8266 24.3125 24.2126 24.1462 24.591 24.2239L26.1544 24.545ZM10.0808 13.3984C10.1809 13.5968 10.2705 13.7715 10.3507 13.9284C11.1371 15.4639 11.1711 15.6573 10.9566 17.3763C10.9351 17.5482 10.9112 17.7394 10.8858 17.9542C10.8262 18.4547 11.0851 18.9052 11.5455 19.1023C11.7452 19.1877 11.9239 19.2629 12.0845 19.3303C13.6817 20.0021 13.8325 20.1287 14.7734 21.5865C14.8673 21.7319 14.9719 21.8937 15.09 22.0745C15.3647 22.4947 15.8536 22.6722 16.3358 22.5263C16.544 22.4635 16.7287 22.4066 16.8948 22.3556C18.5491 21.846 18.7457 21.8461 20.3994 22.3556C20.5653 22.4066 20.7502 22.4637 20.9581 22.5262C21.44 22.6721 21.9294 22.4948 22.2042 22.0744C22.3224 21.8934 22.4272 21.7312 22.5211 21.5856C23.4615 20.1286 23.6121 20.0021 25.2071 19.3303C25.3673 19.2628 25.5456 19.1878 25.7453 19.1023C26.2076 18.9044 26.4679 18.4538 26.4083 17.9543C26.3821 17.7352 26.3578 17.5406 26.336 17.3662C26.1219 15.6534 26.1562 15.4602 26.9472 13.9191C27.0266 13.7645 27.115 13.5923 27.2132 13.3985C27.4396 12.9511 27.3491 12.4392 26.9825 12.0943C26.8232 11.9451 26.6799 11.8122 26.5512 11.6929C25.2835 10.518 25.1852 10.3478 24.7995 8.65697C24.7609 8.48792 24.718 8.29997 24.6687 8.08932C24.5554 7.59992 24.1573 7.26632 23.6543 7.23751C23.4388 7.22564 23.245 7.21608 23.071 7.20755C21.3409 7.12251 21.1563 7.05533 19.7775 6.0098C19.6387 5.9046 19.4843 5.78752 19.3101 5.65696C19.31 5.65684 19.3099 5.65673 19.3096 5.65661C19.1084 5.50565 18.8778 5.43029 18.6473 5.43029C18.4167 5.43029 18.1861 5.50565 17.9849 5.65661C17.8101 5.78752 17.6557 5.9046 17.5169 6.0098C16.1381 7.0551 15.9535 7.12228 14.2234 7.20744C14.0493 7.21596 13.8556 7.22553 13.638 7.23751C13.137 7.2662 12.7391 7.59981 12.6261 8.08702C12.5764 8.29986 12.5335 8.4878 12.4949 8.65674C12.1091 10.3476 12.0109 10.5177 10.7432 11.6927C10.6145 11.812 10.4711 11.9448 10.3109 12.0952C9.94383 12.4386 9.85395 12.9499 10.0808 13.3984ZM12.055 14.0038C12.055 10.3691 15.0122 7.41209 18.6469 7.41209C22.2816 7.41209 25.2387 10.3691 25.2387 14.0038C25.2387 17.6386 22.2816 20.5956 18.6469 20.5956C15.0122 20.5956 12.055 17.6386 12.055 14.0038ZM13.8975 14.0038C13.8975 16.6228 16.0281 18.7532 18.647 18.7532C21.266 18.7532 23.3964 16.6228 23.3964 14.0038C23.3964 11.3849 21.2658 9.25457 18.6469 9.25457C16.028 9.25457 13.8975 11.385 13.8975 14.0038ZM17.5037 16.6889C17.7249 16.6889 17.9466 16.6096 18.1226 16.4499L22.0097 12.9223C22.3865 12.5802 22.4147 11.9978 22.0728 11.621C21.7307 11.2441 21.1483 11.2162 20.7716 11.5579L17.5343 14.4959L16.5543 13.5158C16.1946 13.1562 15.6112 13.1562 15.2515 13.5158C14.8918 13.8756 14.8918 14.4588 15.2515 14.8186L16.8521 16.4192C17.0317 16.5985 17.2676 16.6889 17.5037 16.6889Z" fill="black"/>
</svg>
