<svg width="27" height="27" viewBox="0 0 27 27" fill="none" xmlns="http://www.w3.org/2000/svg">
<path d="M27 0H0V27H27V0Z" fill="#1BD741"/>
<path d="M4.05811 22.9524L5.38064 18.2552C4.53017 16.8104 4.0824 15.1665 4.0824 13.4778C4.0824 8.2781 8.31264 4.04785 13.5123 4.04785C18.712 4.04785 22.9422 8.2781 22.9422 13.4778C22.9422 18.6775 18.712 22.9077 13.5123 22.9077C11.8921 22.9077 10.3057 22.493 8.90219 21.7055L4.05811 22.9524ZM9.14984 19.9899L9.43848 20.1662C10.6621 20.9132 12.0709 21.3081 13.5123 21.3081C17.83 21.3081 21.3426 17.7954 21.3426 13.4778C21.3426 9.16014 17.83 5.64748 13.5123 5.64748C9.19469 5.64748 5.68202 9.16014 5.68202 13.4778C5.68202 14.9822 6.1096 16.4431 6.91842 17.7026L7.1128 18.0053L6.3512 20.7103L9.14984 19.9899Z" fill="white"/>
<path d="M10.8633 9.08866L10.2514 9.05531C10.0592 9.04482 9.87071 9.10904 9.72544 9.23524C9.4288 9.49284 8.95448 9.99085 8.80879 10.6398C8.59154 11.6075 8.92728 12.7924 9.79624 13.9773C10.6652 15.1622 12.2845 17.0581 15.1481 17.8678C16.0708 18.1287 16.7967 17.9528 17.3567 17.5945C17.8003 17.3108 18.1061 16.8554 18.2163 16.3405L18.314 15.8842C18.345 15.7392 18.2714 15.592 18.1366 15.53L16.0687 14.5767C15.9344 14.5149 15.7752 14.554 15.6849 14.671L14.8731 15.7234C14.8118 15.803 14.7068 15.8345 14.612 15.8012C14.056 15.6058 12.1937 14.8258 11.1719 12.8574C11.1275 12.7721 11.1386 12.6685 11.2014 12.5956L11.9773 11.6981C12.0566 11.6064 12.0766 11.4776 12.029 11.3662L11.1376 9.28068C11.0901 9.16965 10.9838 9.09524 10.8633 9.08866Z" fill="white"/>
</svg>
