<svg width="27" height="27" viewBox="0 0 27 27" fill="none" xmlns="http://www.w3.org/2000/svg">
<path d="M27 0H0V27H27V0Z" fill="#44678D"/>
<path d="M6.99474 8.21676C7.64182 9.81473 8.46189 11.3213 9.542 12.6739C9.68525 12.8538 9.86583 13.0139 10.0561 13.1441C10.3339 13.335 10.5961 13.2679 10.7091 12.9501C10.8286 12.6165 10.9382 11.9405 10.9448 11.5903C10.9626 10.675 10.9421 10.0752 10.8929 9.16113C10.861 8.57567 10.6529 8.06159 9.79172 7.90643C9.52576 7.85832 9.50106 7.63941 9.67192 7.42103C10.0276 6.96638 10.5232 6.89393 11.0605 6.86525C11.9314 6.81821 12.8055 6.8566 13.6775 6.86525C14.0327 6.86851 14.39 6.89712 14.7398 6.97337C15.196 7.07285 15.4404 7.39289 15.5155 7.8383C15.5545 8.06805 15.5745 8.30427 15.569 8.53674C15.5464 9.53574 15.4982 10.5342 15.4869 11.5327C15.482 11.9246 15.5106 12.3263 15.5945 12.7079C15.7118 13.2398 16.0739 13.3734 16.4443 12.989C16.9146 12.5009 17.3292 11.9517 17.7184 11.3938C18.4255 10.3791 18.9536 9.26552 19.4083 8.11734C19.6434 7.52489 19.8235 7.39621 20.4608 7.39461C21.6587 7.39188 22.8567 7.39082 24.0546 7.39461C24.267 7.39568 24.4892 7.4157 24.6898 7.47951C25.0152 7.58331 25.1444 7.84873 25.0682 8.18554C24.8903 8.97481 24.4638 9.64564 24.007 10.2906C23.274 11.3253 22.5058 12.3351 21.7555 13.3578C21.6598 13.4881 21.5755 13.6271 21.4971 13.7681C21.2165 14.2752 21.236 14.5595 21.6452 14.9817C22.2966 15.6537 22.994 16.2823 23.6248 16.9727C24.0833 17.4749 24.5076 18.0198 24.8709 18.5933C25.3304 19.3188 25.0465 20.0021 24.1881 20.1237C23.6481 20.1999 21.0101 20.1243 20.8738 20.1237C20.1646 20.1205 19.5429 19.8745 19.0423 19.3928C18.4855 18.8566 17.9795 18.2684 17.4449 17.7089C17.2838 17.5402 17.1119 17.3786 16.9265 17.2375C16.4891 16.9039 16.0599 16.978 15.8556 17.4916C15.681 17.9327 15.5301 19.0912 15.5231 19.1901C15.4863 19.7074 15.1571 20.0372 14.5776 20.0691C12.9045 20.1599 11.2832 19.9734 9.77288 19.1641C8.49276 18.4787 7.47054 17.5094 6.58506 16.3791C5.17845 14.5837 4.06742 12.6102 3.05308 10.5787C3.00124 10.4748 1.97386 8.28868 1.94625 8.18542C1.85448 7.83966 1.94009 7.50937 2.23223 7.39568C2.41435 7.32482 5.80165 7.39544 5.858 7.39846C6.39849 7.42773 6.76706 7.65576 6.99474 8.21676Z" fill="white"/>
</svg>
