<svg width="27" height="27" viewBox="0 0 27 27" fill="none" xmlns="http://www.w3.org/2000/svg">
<path d="M27 0H0V27H27V0Z" fill="#7D3DAF"/>
<path d="M22.039 8.70326L22.0337 8.68194C21.6024 6.93834 19.658 5.06737 17.8723 4.67813L17.8522 4.67398C14.9639 4.123 12.0354 4.123 9.14782 4.67398L9.12708 4.67813C7.34202 5.06737 5.39758 6.93834 4.96568 8.68194L4.96094 8.70326C4.42773 11.1383 4.42773 13.6076 4.96094 16.0426L4.96568 16.0639C5.37916 17.7331 7.1788 19.5181 8.8978 20.009V21.9554C8.8978 22.6598 9.75627 23.0058 10.2445 22.4974L12.2164 20.4476C12.6441 20.4715 13.0721 20.4849 13.5 20.4849C14.9539 20.4849 16.4084 20.3474 17.8522 20.0719L17.8723 20.0678C19.658 19.6785 21.6024 17.8076 22.0337 16.064L22.039 16.0427C22.5723 13.6076 22.5723 11.1383 22.039 8.70326ZM20.4785 15.6895C20.1906 16.827 18.7142 18.2412 17.5411 18.5025C16.0054 18.7945 14.4576 18.9193 12.9113 18.8765C12.8805 18.8757 12.851 18.8876 12.8295 18.9096C12.6101 19.1349 11.3897 20.3877 11.3897 20.3877L9.85817 21.9594C9.7462 22.0762 9.5495 21.9968 9.5495 21.8356V18.6114C9.5495 18.5581 9.51147 18.5128 9.45915 18.5026C9.45886 18.5025 9.45856 18.5025 9.45827 18.5024C8.28521 18.2411 6.8094 16.8269 6.52088 15.6894C6.04099 13.4885 6.04099 11.2573 6.52088 9.05631C6.8094 7.91879 8.28521 6.50461 9.45827 6.24333C12.1403 5.73323 14.8597 5.73323 17.5411 6.24333C18.7148 6.50461 20.1906 7.91879 20.4785 9.05631C20.9589 11.2573 20.9589 13.4885 20.4785 15.6895Z" fill="white"/>
<path d="M16.0515 17.1781C15.8711 17.1234 15.6992 17.0866 15.5396 17.0204C13.8857 16.3342 12.3636 15.4489 11.1579 14.0919C10.4722 13.3203 9.9356 12.4491 9.48195 11.5271C9.26683 11.0898 9.08554 10.6355 8.90076 10.1841C8.73226 9.77246 8.98044 9.3472 9.24177 9.03705C9.48699 8.74597 9.80253 8.52321 10.1443 8.35904C10.411 8.23089 10.6741 8.30477 10.8689 8.53085C11.29 9.01963 11.6768 9.53341 11.9901 10.1C12.1827 10.4485 12.1298 10.8744 11.7807 11.1116C11.6959 11.1692 11.6186 11.2369 11.5396 11.302C11.4702 11.3591 11.405 11.4167 11.3575 11.494C11.2706 11.6353 11.2665 11.802 11.3224 11.9557C11.7529 13.1387 12.4785 14.0586 13.6692 14.5541C13.8597 14.6334 14.0511 14.7257 14.2706 14.7001C14.6382 14.6571 14.7572 14.2539 15.0148 14.0432C15.2666 13.8374 15.5884 13.8346 15.8596 14.0063C16.1309 14.178 16.3939 14.3623 16.6553 14.5485C16.9119 14.7314 17.1673 14.9102 17.404 15.1187C17.6316 15.3191 17.71 15.582 17.5818 15.854C17.3472 16.3521 17.0058 16.7666 16.5134 17.0311C16.3743 17.1057 16.2083 17.1299 16.0515 17.1781C16.2083 17.1299 15.8711 17.1233 16.0515 17.1781Z" fill="white"/>
<path d="M13.5043 7.78899C15.6676 7.84959 17.4445 9.28529 17.8252 11.4241C17.8901 11.7885 17.9132 12.1611 17.9421 12.5309C17.9542 12.6865 17.8661 12.8343 17.6982 12.8363C17.5248 12.8384 17.4468 12.6933 17.4355 12.5378C17.4132 12.23 17.3978 11.9208 17.3554 11.6155C17.1314 10.0039 15.8464 8.67068 14.2423 8.38458C14.0009 8.34151 13.7539 8.33019 13.5094 8.30454C13.3548 8.28831 13.1524 8.27895 13.1181 8.08681C13.0894 7.92572 13.2254 7.79746 13.3787 7.78922C13.4205 7.78691 13.4624 7.78881 13.5043 7.78899C15.6676 7.84959 13.4624 7.78881 13.5043 7.78899Z" fill="white"/>
<path d="M16.792 12.0504C16.7885 12.0774 16.7866 12.1409 16.7708 12.2008C16.7134 12.418 16.3841 12.4452 16.3082 12.226C16.2858 12.1609 16.2824 12.0869 16.2823 12.0169C16.2815 11.5587 16.1819 11.101 15.9509 10.7023C15.7134 10.2925 15.3505 9.94809 14.9249 9.73967C14.6675 9.61365 14.3892 9.53533 14.1071 9.48865C13.9838 9.46826 13.8592 9.45588 13.7353 9.43864C13.5852 9.41779 13.505 9.32211 13.5122 9.17417C13.5188 9.03553 13.6201 8.93582 13.7712 8.94436C14.2677 8.97256 14.7472 9.07985 15.1886 9.31357C16.0861 9.7889 16.5988 10.5392 16.7485 11.541C16.7553 11.5864 16.7662 11.6314 16.7696 11.6769C16.7781 11.7894 16.7834 11.9021 16.792 12.0504C16.7885 12.0774 16.7834 11.9021 16.792 12.0504Z" fill="white"/>
<path d="M15.4464 11.9984C15.2654 12.0017 15.1686 11.9015 15.1499 11.7356C15.1369 11.6199 15.1267 11.5026 15.0991 11.39C15.0447 11.1684 14.9269 10.9629 14.7404 10.827C14.6523 10.7629 14.5525 10.7161 14.448 10.686C14.3153 10.6476 14.1774 10.6582 14.0449 10.6257C13.9011 10.5905 13.8215 10.474 13.8441 10.339C13.8647 10.2162 13.9842 10.1204 14.1184 10.1301C14.9571 10.1906 15.5566 10.6242 15.6421 11.6116C15.6482 11.6813 15.6553 11.7549 15.6398 11.8216C15.6133 11.9357 15.5289 11.9929 15.4464 11.9984C15.5289 11.9929 15.2654 12.0017 15.4464 11.9984Z" fill="white"/>
</svg>
