<svg width="27" height="27" viewBox="0 0 27 27" fill="none" xmlns="http://www.w3.org/2000/svg">
<rect width="27" height="27" fill="url(#paint0_radial_662_11457)"/>
<path d="M26.5379 22.1704C26.8691 19.0675 27.022 15.9596 26.9973 12.8522L20.8257 6.68066C20.0547 5.80045 18.9285 5.25107 17.6052 5.20348C14.8838 5.10543 12.1538 5.11038 9.43198 5.2039C7.1714 5.28176 5.59061 6.80117 5.18521 9.03435C5.11373 9.42862 5.07088 9.82804 5.01465 10.2252V16.7721C5.04575 16.9843 5.09148 17.1954 5.1057 17.4088C5.19633 18.7671 5.75458 19.9306 6.64838 20.7177L12.9287 26.9978C16.0108 27.0194 19.0931 26.8662 22.1708 26.5376C24.4736 26.2919 26.2921 24.4732 26.5379 22.1704Z" fill="url(#paint1_linear_662_11457)"/>
<path d="M26.5375 22.1704C26.292 24.4727 24.4729 26.2919 22.1705 26.5374C19.0931 26.8658 16.0102 27.0192 12.9286 26.9976L6.65771 20.7267C7.38467 21.3631 8.33224 21.7505 9.43183 21.7919C12.153 21.8941 14.8837 21.8914 17.6048 21.7934C20.066 21.7044 21.8471 19.8828 21.9239 17.4216C22.0059 14.8083 22.0059 12.1883 21.9239 9.57507C21.8889 8.43964 21.4903 7.44057 20.8295 6.68457L26.9971 12.8522C27.0214 15.9592 26.8686 19.0675 26.5375 22.1704Z" fill="url(#paint2_linear_662_11457)"/>
<path d="M16.6858 10.5763C15.8952 9.71541 14.7608 9.17529 13.4999 9.17529C11.1116 9.17529 9.17529 11.1116 9.17529 13.4999C9.17529 14.7608 9.71541 15.8952 10.5763 16.6858L20.582 26.6916C21.1116 26.6454 21.6412 26.5941 22.1704 26.5377C24.4732 26.2919 26.2919 24.4732 26.5377 22.1704C26.5941 21.6412 26.6454 21.1116 26.6916 20.582L16.6858 10.5763Z" fill="url(#paint3_linear_662_11457)"/>
<path d="M26.9478 16.4083L18.8951 8.35585C18.7072 8.10928 18.4112 7.94922 18.0773 7.94922C17.5091 7.94922 17.0483 8.40982 17.0483 8.97816C17.0483 9.31207 17.2084 9.60809 17.455 9.79595L26.8038 19.145C26.8672 18.233 26.9152 17.3207 26.9478 16.4083Z" fill="url(#paint4_linear_662_11457)"/>
<path d="M5.01465 10.2252C5.07088 9.82804 5.11373 9.42862 5.18521 9.03435C5.5904 6.80117 7.1714 5.28176 9.43198 5.2039C12.1538 5.11038 14.8838 5.10543 17.6052 5.20348C20.0656 5.29206 21.8474 7.11387 21.9243 9.57508C22.006 12.1885 22.006 14.8084 21.9243 17.4218C21.8474 19.883 20.0662 21.7046 17.6054 21.7934C14.884 21.8917 12.1534 21.8941 9.43218 21.792C6.97138 21.6995 5.27029 19.8735 5.1057 17.4086C5.09148 17.1954 5.04575 16.9841 5.01465 16.7719C5.01465 14.5896 5.01465 12.4073 5.01465 10.2252ZM13.5024 20.3348C14.7478 20.3348 15.9945 20.372 17.2383 20.3261C19.1885 20.2538 20.388 19.0899 20.4335 17.1416C20.4899 14.714 20.4899 12.2831 20.4335 9.85524C20.388 7.90736 19.1876 6.7163 17.2383 6.6749C14.7641 6.62258 12.2873 6.62299 9.81306 6.6749C7.87858 6.71548 6.67558 7.88243 6.62305 9.80889C6.5563 12.2672 6.5563 14.7299 6.62305 17.1882C6.67558 19.1144 7.87858 20.2544 9.81327 20.3261C11.0414 20.3718 12.2726 20.3348 13.5024 20.3348Z" fill="url(#paint5_linear_662_11457)"/>
<path d="M5.01465 10.2252C5.07088 9.82804 5.11373 9.42862 5.18521 9.03435C5.5904 6.80117 7.1714 5.28176 9.43198 5.2039C12.1538 5.11038 14.8838 5.10543 17.6052 5.20348C20.0656 5.29206 21.8474 7.11387 21.9243 9.57508C22.006 12.1885 22.006 14.8084 21.9243 17.4218C21.8474 19.883 20.0662 21.7046 17.6054 21.7934C14.884 21.8917 12.1534 21.8941 9.43218 21.792C6.97138 21.6995 5.27029 19.8735 5.1057 17.4086C5.09148 17.1954 5.04575 16.9841 5.01465 16.7719C5.01465 14.5896 5.01465 12.4073 5.01465 10.2252ZM13.5024 20.3348C14.7478 20.3348 15.9945 20.372 17.2383 20.3261C19.1885 20.2538 20.388 19.0899 20.4335 17.1416C20.4899 14.714 20.4899 12.2831 20.4335 9.85524C20.388 7.90736 19.1876 6.7163 17.2383 6.6749C14.7641 6.62258 12.2873 6.62299 9.81306 6.6749C7.87858 6.71548 6.67558 7.88243 6.62305 9.80889C6.5563 12.2672 6.5563 14.7299 6.62305 17.1882C6.67558 19.1144 7.87858 20.2544 9.81327 20.3261C11.0414 20.3718 12.2726 20.3348 13.5024 20.3348Z" fill="white"/>
<path d="M13.4999 9.17578C11.1116 9.17578 9.17529 11.1119 9.17529 13.5002C9.17529 15.8887 11.1116 17.8248 13.4999 17.8248C15.8884 17.8248 17.8246 15.8887 17.8246 13.5002C17.8246 11.1119 15.8884 9.17578 13.4999 9.17578ZM13.4999 16.3359C11.9338 16.3359 10.6642 15.0664 10.6642 13.5002C10.6642 11.934 11.9338 10.6645 13.4999 10.6645C15.0661 10.6645 16.3356 11.934 16.3356 13.5002C16.3356 15.0664 15.0661 16.3359 13.4999 16.3359Z" fill="white"/>
<path d="M19.106 8.97816C19.106 9.54629 18.6454 10.0069 18.0773 10.0069C17.5091 10.0069 17.0483 9.54629 17.0483 8.97816C17.0483 8.40982 17.5091 7.94922 18.0773 7.94922C18.6454 7.94922 19.106 8.40982 19.106 8.97816Z" fill="white"/>
<defs>
<radialGradient id="paint0_radial_662_11457" cx="0" cy="0" r="1" gradientUnits="userSpaceOnUse" gradientTransform="translate(5.53485 23.5959) scale(29.7762)">
<stop stop-color="#FAE100"/>
<stop offset="0.0544" stop-color="#FADC04"/>
<stop offset="0.1167" stop-color="#FBCE0E"/>
<stop offset="0.1829" stop-color="#FCB720"/>
<stop offset="0.2514" stop-color="#FE9838"/>
<stop offset="0.3054" stop-color="#FF7950"/>
<stop offset="0.4922" stop-color="#FF1C74"/>
<stop offset="1" stop-color="#6C1CD1"/>
</radialGradient>
<linearGradient id="paint1_linear_662_11457" x1="11.9641" y1="11.9257" x2="5.28206" y2="5.24358" gradientUnits="userSpaceOnUse">
<stop stop-color="#833AB4" stop-opacity="0"/>
<stop offset="1" stop-color="#833AB4"/>
</linearGradient>
<linearGradient id="paint2_linear_662_11457" x1="18.5043" y1="24.6945" x2="15.1691" y2="8.97176" gradientUnits="userSpaceOnUse">
<stop stop-color="#833AB4" stop-opacity="0"/>
<stop offset="1" stop-color="#833AB4"/>
</linearGradient>
<linearGradient id="paint3_linear_662_11457" x1="19.7735" y1="19.7735" x2="6.37768" y2="6.37767" gradientUnits="userSpaceOnUse">
<stop stop-color="#833AB4" stop-opacity="0"/>
<stop offset="1" stop-color="#833AB4"/>
</linearGradient>
<linearGradient id="paint4_linear_662_11457" x1="20.7672" y1="11.6681" x2="16.3375" y2="7.23837" gradientUnits="userSpaceOnUse">
<stop stop-color="#833AB4" stop-opacity="0"/>
<stop offset="1" stop-color="#833AB4"/>
</linearGradient>
<linearGradient id="paint5_linear_662_11457" x1="18.861" y1="8.17632" x2="7.93891" y2="19.0984" gradientUnits="userSpaceOnUse">
<stop stop-color="#833AB4"/>
<stop offset="0.0922" stop-color="#9C3495"/>
<stop offset="0.2927" stop-color="#DC2546"/>
<stop offset="0.392" stop-color="#FD1D1D"/>
<stop offset="0.5589" stop-color="#FC6831"/>
<stop offset="0.6887" stop-color="#FC9B40"/>
<stop offset="0.7521" stop-color="#FCAF45"/>
<stop offset="0.7806" stop-color="#FDB750"/>
<stop offset="0.8656" stop-color="#FECB6A"/>
<stop offset="0.9415" stop-color="#FFD87A"/>
<stop offset="1" stop-color="#FFDC80"/>
</linearGradient>
</defs>
</svg>
